<?xml version="1.0" standalone="no"?>
<!DOCTYPE svg PUBLIC "-//W3C//DTD SVG 1.1//EN" "http://www.w3.org/Graphics/SVG/1.1/DTD/svg11.dtd" >
<svg>
<metadata>
Created by FontForge 20110222 at Tue Aug 19 12:27:02 2014
 By Orthosie Webhosting
Typeface (c) The Monotype Corporation plc. Data (c) The Monotype Corporation plc/Type Solutions Inc. 1990/91 All Rights Reserved.
</metadata>
<defs>
<font id="MonotypeSorts" horiz-adv-x="1614" >
  <font-face 
    font-family="Monotype Sorts"
    font-weight="400"
    font-stretch="normal"
    units-per-em="2048"
    panose-1="1 1 6 1 1 1 1 1 1 1"
    ascent="1638"
    descent="-410"
    x-height="1435"
    cap-height="1474"
    bbox="-1 -411 2004 1641"
    underline-thickness="111"
    underline-position="-43"
    unicode-range="U+000D-FB02"
  />
<missing-glyph horiz-adv-x="1536" 
d="M256 0v1280h1024v-1280h-1024zM288 32h960v1216h-960v-1216z" />
    <glyph glyph-name=".notdef" unicode="&#x2c7;" horiz-adv-x="1536" 
d="M256 0v1280h1024v-1280h-1024zM288 32h960v1216h-960v-1216z" />
    <glyph glyph-name=".notdef" unicode="&#xe01e;" horiz-adv-x="1536" 
d="M256 0v1280h1024v-1280h-1024zM288 32h960v1216h-960v-1216z" />
    <glyph glyph-name=".notdef" unicode="&#x2020;" horiz-adv-x="1536" 
d="M256 0v1280h1024v-1280h-1024zM288 32h960v1216h-960v-1216z" />
    <glyph glyph-name=".notdef" unicode="&#xfc;" horiz-adv-x="1536" 
d="M256 0v1280h1024v-1280h-1024zM288 32h960v1216h-960v-1216z" />
    <glyph glyph-name=".notdef" unicode="&#xfb;" horiz-adv-x="1536" 
d="M256 0v1280h1024v-1280h-1024zM288 32h960v1216h-960v-1216z" />
    <glyph glyph-name=".notdef" unicode="&#xf9;" horiz-adv-x="1536" 
d="M256 0v1280h1024v-1280h-1024zM288 32h960v1216h-960v-1216z" />
    <glyph glyph-name=".notdef" unicode="&#xfa;" horiz-adv-x="1536" 
d="M256 0v1280h1024v-1280h-1024zM288 32h960v1216h-960v-1216z" />
    <glyph glyph-name=".notdef" unicode="&#xf5;" horiz-adv-x="1536" 
d="M256 0v1280h1024v-1280h-1024zM288 32h960v1216h-960v-1216z" />
    <glyph glyph-name=".notdef" unicode="&#xf6;" horiz-adv-x="1536" 
d="M256 0v1280h1024v-1280h-1024zM288 32h960v1216h-960v-1216z" />
    <glyph glyph-name=".notdef" unicode="&#xf4;" horiz-adv-x="1536" 
d="M256 0v1280h1024v-1280h-1024zM288 32h960v1216h-960v-1216z" />
    <glyph glyph-name=".notdef" unicode="&#xf2;" horiz-adv-x="1536" 
d="M256 0v1280h1024v-1280h-1024zM288 32h960v1216h-960v-1216z" />
    <glyph glyph-name=".notdef" unicode="&#xf3;" horiz-adv-x="1536" 
d="M256 0v1280h1024v-1280h-1024zM288 32h960v1216h-960v-1216z" />
    <glyph glyph-name=".notdef" unicode="&#xf1;" horiz-adv-x="1536" 
d="M256 0v1280h1024v-1280h-1024zM288 32h960v1216h-960v-1216z" />
    <glyph glyph-name=".notdef" unicode="&#xef;" horiz-adv-x="1536" 
d="M256 0v1280h1024v-1280h-1024zM288 32h960v1216h-960v-1216z" />
    <glyph glyph-name=".notdef" unicode="&#xee;" horiz-adv-x="1536" 
d="M256 0v1280h1024v-1280h-1024zM288 32h960v1216h-960v-1216z" />
    <glyph glyph-name=".notdef" unicode="&#xec;" horiz-adv-x="1536" 
d="M256 0v1280h1024v-1280h-1024zM288 32h960v1216h-960v-1216z" />
    <glyph glyph-name=".notdef" unicode="&#xed;" horiz-adv-x="1536" 
d="M256 0v1280h1024v-1280h-1024zM288 32h960v1216h-960v-1216z" />
    <glyph glyph-name=".notdef" unicode="&#xeb;" horiz-adv-x="1536" 
d="M256 0v1280h1024v-1280h-1024zM288 32h960v1216h-960v-1216z" />
    <glyph glyph-name=".notdef" unicode="&#xea;" horiz-adv-x="1536" 
d="M256 0v1280h1024v-1280h-1024zM288 32h960v1216h-960v-1216z" />
    <glyph glyph-name=".notdef" unicode="&#xe8;" horiz-adv-x="1536" 
d="M256 0v1280h1024v-1280h-1024zM288 32h960v1216h-960v-1216z" />
    <glyph glyph-name=".notdef" unicode="&#xe9;" horiz-adv-x="1536" 
d="M256 0v1280h1024v-1280h-1024zM288 32h960v1216h-960v-1216z" />
    <glyph glyph-name=".notdef" horiz-adv-x="1536" 
d="M256 0v1280h1024v-1280h-1024zM288 32h960v1216h-960v-1216z" />
    <glyph glyph-name=".notdef" horiz-adv-x="1536" 
d="M256 0v1280h1024v-1280h-1024zM288 32h960v1216h-960v-1216z" />
    <glyph glyph-name=".notdef" horiz-adv-x="1536" 
d="M256 0v1280h1024v-1280h-1024zM288 32h960v1216h-960v-1216z" />
    <glyph glyph-name=".notdef" horiz-adv-x="1536" 
d="M256 0v1280h1024v-1280h-1024zM288 32h960v1216h-960v-1216z" />
    <glyph glyph-name=".notdef" horiz-adv-x="1536" 
d="M256 0v1280h1024v-1280h-1024zM288 32h960v1216h-960v-1216z" />
    <glyph glyph-name=".notdef" horiz-adv-x="1536" 
d="M256 0v1280h1024v-1280h-1024zM288 32h960v1216h-960v-1216z" />
    <glyph glyph-name=".notdef" horiz-adv-x="1536" 
d="M256 0v1280h1024v-1280h-1024zM288 32h960v1216h-960v-1216z" />
    <glyph glyph-name=".notdef" horiz-adv-x="1536" 
d="M256 0v1280h1024v-1280h-1024zM288 32h960v1216h-960v-1216z" />
    <glyph glyph-name=".notdef" horiz-adv-x="1536" 
d="M256 0v1280h1024v-1280h-1024zM288 32h960v1216h-960v-1216z" />
    <glyph glyph-name=".notdef" horiz-adv-x="1536" 
d="M256 0v1280h1024v-1280h-1024zM288 32h960v1216h-960v-1216z" />
    <glyph glyph-name=".notdef" horiz-adv-x="1536" 
d="M256 0v1280h1024v-1280h-1024zM288 32h960v1216h-960v-1216z" />
    <glyph glyph-name=".notdef" horiz-adv-x="1536" 
d="M256 0v1280h1024v-1280h-1024zM288 32h960v1216h-960v-1216z" />
    <glyph glyph-name=".notdef" horiz-adv-x="1536" 
d="M256 0v1280h1024v-1280h-1024zM288 32h960v1216h-960v-1216z" />
    <glyph glyph-name=".notdef" horiz-adv-x="1536" 
d="M256 0v1280h1024v-1280h-1024zM288 32h960v1216h-960v-1216z" />
    <glyph glyph-name=".notdef" horiz-adv-x="1536" 
d="M256 0v1280h1024v-1280h-1024zM288 32h960v1216h-960v-1216z" />
    <glyph glyph-name=".notdef" horiz-adv-x="1536" 
d="M256 0v1280h1024v-1280h-1024zM288 32h960v1216h-960v-1216z" />
    <glyph glyph-name=".notdef" horiz-adv-x="1536" 
d="M256 0v1280h1024v-1280h-1024zM288 32h960v1216h-960v-1216z" />
    <glyph glyph-name=".notdef" horiz-adv-x="1536" 
d="M256 0v1280h1024v-1280h-1024zM288 32h960v1216h-960v-1216z" />
    <glyph glyph-name=".notdef" horiz-adv-x="1536" 
d="M256 0v1280h1024v-1280h-1024zM288 32h960v1216h-960v-1216z" />
    <glyph glyph-name=".notdef" horiz-adv-x="1536" 
d="M256 0v1280h1024v-1280h-1024zM288 32h960v1216h-960v-1216z" />
    <glyph glyph-name=".notdef" unicode="&#xa;" horiz-adv-x="1536" 
d="M256 0v1280h1024v-1280h-1024zM288 32h960v1216h-960v-1216z" />
    <glyph glyph-name=".notdef" horiz-adv-x="1536" 
d="M256 0v1280h1024v-1280h-1024zM288 32h960v1216h-960v-1216z" />
    <glyph glyph-name=".notdef" horiz-adv-x="1536" 
d="M256 0v1280h1024v-1280h-1024zM288 32h960v1216h-960v-1216z" />
    <glyph glyph-name=".notdef" horiz-adv-x="1536" 
d="M256 0v1280h1024v-1280h-1024zM288 32h960v1216h-960v-1216z" />
    <glyph glyph-name=".notdef" horiz-adv-x="1536" 
d="M256 0v1280h1024v-1280h-1024zM288 32h960v1216h-960v-1216z" />
    <glyph glyph-name=".notdef" horiz-adv-x="1536" 
d="M256 0v1280h1024v-1280h-1024zM288 32h960v1216h-960v-1216z" />
    <glyph glyph-name=".notdef" horiz-adv-x="1536" 
d="M256 0v1280h1024v-1280h-1024zM288 32h960v1216h-960v-1216z" />
    <glyph glyph-name=".notdef" horiz-adv-x="1536" 
d="M256 0v1280h1024v-1280h-1024zM288 32h960v1216h-960v-1216z" />
    <glyph glyph-name="uni001D" horiz-adv-x="0" 
 />
    <glyph glyph-name="uni001D" horiz-adv-x="0" 
 />
    <glyph glyph-name="uni001D" horiz-adv-x="0" 
 />
    <glyph glyph-name="uni000D" unicode="&#xd;" horiz-adv-x="1536" 
 />
    <glyph glyph-name="uni000D" unicode="&#x9;" horiz-adv-x="1536" 
 />
    <glyph glyph-name="space" unicode=" " horiz-adv-x="569" 
 />
    <glyph glyph-name="a1" unicode="!" horiz-adv-x="1995" 
d="M1151 559v-66h-397v66h146l-95 61q-26 -10 -118 -64q-106 -63 -246 -108q144 -39 144 -156q0 -86 -75 -138.5t-177 -52.5q-106 0 -162.5 45t-56.5 117q0 117 140 179l123 54q49 21 100 56t197 149q-82 66 -145 111l-68 50q-5 5 -49 24l-175 79q-56 25 -89 72t-33 102
q0 73 58.5 119t156.5 46q112 0 184.5 -54.5t72.5 -138.5q0 -122 -150 -156q203 -65 363 -174l572 365q142 90 257 123t188 33q23 0 29 -10l-917 -592zM315 1234q-61 0 -95.5 -27.5t-34.5 -70.5q0 -55 56 -91t139 -36q66 0 101 27.5t35 72.5q0 57 -57 91t-144 34zM384 393
q-87 0 -143 -31.5t-56 -92.5q0 -42 32.5 -70t99.5 -28q83 0 139.5 30.5t56.5 90.5q0 101 -129 101zM1318 559h404v-66h-404v66z" />
    <glyph glyph-name="a2" unicode="&#x22;" horiz-adv-x="1968" 
d="M763 778l572 364q248 157 445 157q20 0 28 -10l-865 -555h370v-69h-370l861 -557q-8 -10 -25 -10q-202 0 -435 150l-581 373q-98 -64 -172 -100.5t-187 -75.5q144 -39 144 -156q0 -85 -79 -136.5t-183 -51.5q-101 0 -155 43t-54 116q0 47 22.5 84.5t57.5 60.5t121 61
q94 41 145.5 73.5t212.5 158.5q-136 108 -183 140t-132 68q-110 48 -151 72.5t-66.5 66.5t-25.5 91q0 72 58.5 118.5t156.5 46.5q110 0 183 -53.5t73 -139.5q0 -122 -149 -156q188 -55 363 -174zM282 1230q-66 0 -100 -27t-34 -70q0 -55 56 -91t139 -36q66 0 101 27.5
t35 71.5q0 60 -59.5 92.5t-137.5 32.5zM347 390q-87 0 -143 -32t-56 -90q0 -44 32.5 -72t101.5 -28q78 0 136 31t58 90q0 101 -129 101zM158 734h418v-69h-418v69zM1475 734h416v-69h-416v69z" />
    <glyph glyph-name="a202" unicode="#" horiz-adv-x="1995" 
d="M1151 847l-222 -142l917 -592q-6 -10 -30 -10q-196 0 -443 157l-573 364q-89 -61 -159.5 -94.5t-203.5 -79.5q150 -33 150 -155q0 -86 -73.5 -140t-180.5 -54q-102 0 -160 46.5t-58 119.5q0 47 22.5 85t52.5 60.5t133 67.5q193 85 351 225q-147 113 -207.5 151t-185.5 95
q-103 48 -135 92.5t-32 98.5q0 74 57 118t155 44q111 0 185 -52.5t74 -137.5q0 -117 -144 -157q136 -43 364 -172l95 62h-146v65h397v-65zM384 1012q129 0 129 102q0 60 -57.5 90.5t-138.5 30.5q-66 0 -99 -28t-33 -73q0 -59 57 -90.5t142 -31.5zM311 172q98 0 151.5 34.5
t53.5 89.5q0 45 -34.5 73t-102.5 28q-81 0 -137.5 -36t-56.5 -92q0 -43 36.5 -70t89.5 -27zM1318 847v65h404v-65h-404z" />
    <glyph glyph-name="a3" unicode="$" horiz-adv-x="2007" 
d="M880 743l507 256q256 129 395 129q47 0 102.5 -23t119.5 -110l-783 -423l783 -376q-96 -142 -284 -142q-145 0 -373 105l-482 223q-131 -60 -203 -60q-19 0 -49 3q24 -42 24 -78q0 -106 -108.5 -176.5t-250.5 -70.5q-131 0 -198 60.5t-67 157.5q0 77 37 130.5t92.5 79
t195.5 48.5q228 39 305 65q-44 32 -89 48t-138 30q-162 26 -240 51.5t-120.5 81t-42.5 136.5q0 100 68.5 161t166.5 61q152 0 269 -66.5t117 -177.5q0 -27 -16 -66q20 3 41 3q103 0 221 -60zM921 682l189 -92l777 422q-47 45 -113 45q-115 0 -366 -127zM1887 172l-1019 496
q-137 67 -237 67q-23 0 -46 -4q-32 -6 -43 -6q-24 0 -24 17q0 8 8 21q35 49 35 92q0 92 -103.5 138t-209.5 46q-73 0 -119 -43.5t-46 -107.5q0 -65 47 -110q47 -46 206 -72q151 -25 224 -45.5t108 -49t60 -85.5l631 -292q139 -65 213 -86t155 -21t160 45zM246 980
q75 0 162.5 -31.5t87.5 -98.5q0 -45 -26 -67.5t-79 -22.5q-80 0 -164 32t-84 99q0 41 29 65t74 24zM248 920q-22 0 -33.5 -7t-11.5 -22q0 -36 83 -53.5t114 -17.5q21 0 31 7t10 20q0 34 -79.5 53.5t-113.5 19.5zM888 595q19 0 32.5 -13t13.5 -32q0 -18 -13.5 -31.5
t-31.5 -13.5q-19 0 -32 13.5t-13 31.5q0 19 13 32t31 13zM703 498q-90 -52 -313 -87q-130 -21 -185 -37t-87.5 -55t-32.5 -100q0 -73 48 -109.5t143 -36.5q103 0 195 48t92 131q0 40 -30 85q-14 21 -14 30q0 12 13.5 16t65.5 6q76 2 117.5 13.5t106.5 40.5zM398 343
q48 0 74.5 -24t26.5 -64q0 -70 -90 -96.5t-165 -26.5q-41 0 -68 25t-27 64q0 74 98.5 98t150.5 24zM400 284q-31 0 -110.5 -16.5t-79.5 -49.5q0 -13 9 -19.5t26 -6.5q38 0 101.5 14.5t78 25.5t14.5 26q0 13 -9.5 19.5t-29.5 6.5z" />
    <glyph glyph-name="a4" unicode="%" horiz-adv-x="1472" 
d="M1089 740l-15 111q-147 44 -339 44q-191 0 -338 -44l-16 -111l-301 -92q-11 -3 -16 -3q-18 0 -18 20q0 5 2 16l13 89q5 36 20.5 54.5t122.5 68.5t251.5 85t279.5 35q131 0 269 -32.5t252.5 -84t131.5 -71t22 -55.5l13 -89q1 -11 1 -15q0 -21 -18 -21q-5 0 -16 3zM567 694
h336l253 -77q49 -14 78 -35.5t41 -46t25 -90.5l39 -189q5 -25 5 -40q0 -36 -20 -61.5t-93 -25.5h-992q-74 0 -93.5 26t-19.5 60q0 16 5 41l39 189q12 64 23.5 89t40.5 46.5t79 36.5zM734 638q-19 0 -32.5 -13.5t-13.5 -32.5t13.5 -32.5t32.5 -13.5q18 0 31.5 13.5t13.5 32.5
t-13.5 32.5t-31.5 13.5zM878 638q-18 0 -31.5 -13.5t-13.5 -32.5t13.5 -32.5t31.5 -13.5q19 0 32.5 13.5t13.5 32.5t-13.5 32.5t-32.5 13.5zM589 638q-19 0 -32.5 -13.5t-13.5 -32.5t13.5 -32.5t32.5 -13.5t32.5 13.5t13.5 32.5t-13.5 32.5t-32.5 13.5zM734 512
q-19 0 -32.5 -13.5t-13.5 -32.5t13.5 -32.5t32.5 -13.5q18 0 31.5 13.5t13.5 32.5t-13.5 32.5t-31.5 13.5zM890 512q-18 0 -31.5 -13.5t-13.5 -32.5t13.5 -32.5t31.5 -13.5q19 0 32.5 13.5t13.5 32.5t-13.5 32.5t-32.5 13.5zM577 512q-19 0 -32.5 -13.5t-13.5 -32.5
t13.5 -32.5t32.5 -13.5t32.5 13.5t13.5 32.5t-13.5 32.5t-32.5 13.5zM734 386q-19 0 -32.5 -13.5t-13.5 -31.5q0 -19 13.5 -32.5t32.5 -13.5q18 0 31.5 13.5t13.5 32.5q0 18 -13.5 31.5t-31.5 13.5zM903 386q-19 0 -32.5 -13.5t-13.5 -31.5q0 -19 13.5 -32.5t31.5 -13.5
q19 0 32.5 13.5t13.5 32.5q0 18 -13.5 31.5t-31.5 13.5zM565 386q-19 0 -32.5 -13.5t-13.5 -31.5q0 -19 13.5 -32.5t32.5 -13.5t32 13.5t13 32.5q0 18 -13.5 31.5t-31.5 13.5zM734 261q-19 0 -32.5 -13.5t-13.5 -32.5t13.5 -32.5t32.5 -13.5q18 0 31.5 13.5t13.5 32.5
t-13.5 32.5t-31.5 13.5zM915 261q-19 0 -32.5 -13.5t-13.5 -32.5t13.5 -32.5t32.5 -13.5q18 0 31.5 13.5t13.5 32.5t-13.5 32.5t-31.5 13.5zM553 261q-19 0 -32.5 -13.5t-13.5 -32.5t13.5 -32.5t32.5 -13.5q18 0 31.5 13.5t13.5 32.5t-13.5 32.5t-31.5 13.5z" />
    <glyph glyph-name="a5" unicode="&#x26;" horiz-adv-x="1616" 
d="M318 300q-33 0 -106 129t-73 303q0 280 188.5 459.5t461.5 179.5q83 0 153.5 -18.5t70.5 -39.5q0 -22 -22 -22q-5 0 -22 6q-85 29 -188 29q-249 0 -421.5 -170t-172.5 -421q0 -206 131 -383q18 -25 18 -34q0 -18 -18 -18zM426 28q-31 46 -31 93q0 133 112.5 365.5
t288 446t265.5 285t142 71.5q36 0 113 -36l20 3q27 -12 62 -38t35 -47q0 -38 -77 -141t-115 -143t-81 -40q-23 0 -40 10t-38 39q-33 43 -48 43q-13 0 -25 -13.5t-39 -67.5q-99 -197 -251 -368q-80 -91 -100 -118v-15q4 -5 8 -13q6 -12 30 -18q66 -19 75 -24.5t22 -32.5
t33.5 -107.5t20.5 -125.5q0 -28 -20 -47t-109.5 -45.5t-113.5 -26.5q-18 0 -36 11.5t-62 51.5l-26 -64q4 -17 4 -29l-2 -45q0 -24 6 -56l-6 -20l9 -22q5 -55 15 -79q15 -32 15 -46q0 -22 -49 -30q-17 27 -20 37t-3 57l-12 32l5 43q-10 26 -10 44q0 21 10 46q-9 32 -9 37
q0 4 15 63l-2 33zM1385 889q11 0 16 -8.5t12 -61.5t7 -92q0 -180 -95.5 -329.5t-240 -223t-169.5 -73.5q-22 0 -22 23q0 15 29 25q225 80 338.5 236t113.5 348q0 47 -10 107q-2 17 -2 25q0 24 23 24z" />
    <glyph glyph-name="a119" unicode="'" horiz-adv-x="1618" 
d="M809 1495q199 0 373 -100t274.5 -274.5t100.5 -373.5q0 -198 -100 -372.5t-274.5 -275t-373.5 -100.5t-373.5 100.5t-274.5 275t-100 372.5q0 199 100 373.5t274.5 274.5t373.5 100zM808 1452q-290 0 -497 -207t-207 -497t207 -497t497 -207t497 207t207 497t-207 497
t-497 207zM972 1007l163 163q36 36 63 36q30 0 49.5 -22t19.5 -43q0 -31 -36 -67l-163 -163q-36 -36 -63 -36t-48 21t-21 48t36 63zM547 910l-163 163q-36 37 -36 64t21 47.5t48 20.5t63 -36l163 -162q36 -36 36 -63q0 -28 -20.5 -48.5t-48.5 -20.5q-27 0 -63 35zM808 856
q45 0 77 -32.5t32 -77.5t-32 -77t-77 -32t-77.5 32t-32.5 77t32.5 77.5t77.5 32.5zM386 421l163 163q36 36 63 36t48 -20.5t21 -49.5q0 -27 -36 -62l-163 -163q-36 -36 -64 -36q-27 0 -47.5 20.5t-20.5 48.5q0 26 36 63zM1133 324l-162 163q-36 36 -36 63q0 29 21.5 49
t42.5 20q31 0 68 -36l163 -163q36 -36 36 -63t-20.5 -48t-49.5 -21q-27 0 -63 36z" />
    <glyph glyph-name="a118" unicode="(" horiz-adv-x="1620" 
d="M605 1340h112q33 0 52 -15.5t43 -65.5l196 -390q27 -54 47.5 -72t68.5 -20l132 -5q220 -9 272.5 -43.5t52.5 -57.5q0 -27 -53.5 -61t-271.5 -43l-132 -5q-51 -2 -71 -21.5t-45 -70.5l-196 -390q-25 -51 -45 -65.5t-50 -14.5h-112q-27 0 -27 22q0 15 30 69
q58 102 105 237.5t47 205.5q0 18 -14 23.5t-38 8.5l-328 41q-33 4 -42 4q-21 0 -30 -15t-37 -94q-20 -59 -32.5 -76t-33.5 -15l-88 8q-36 3 -36 27q0 10 17 63l30 96q2 6 2 10q0 19 -40 24q-56 6 -56 31q0 24 56 31q40 5 40 23q0 4 -2 11l-30 95q-17 53 -17 64q0 23 36 26
l88 8q22 2 35 -16.5t40 -100.5q19 -57 30 -69.5t30 -12.5q6 0 40 4l328 40q52 6 52 32q0 77 -56.5 229t-103.5 234q-22 37 -22 50q0 8 7.5 15t19.5 7z" />
    <glyph glyph-name="a117" unicode=")" horiz-adv-x="1413" 
d="M56 989h1301v-932h-1301v932zM165 930l543 -536l540 536h-1083zM115 881v-717l360 359zM1299 881l-360 -358l360 -359v717zM524 475l-359 -360h1083l-358 360l-182 -182z" />
    <glyph glyph-name="a11" unicode="*" horiz-adv-x="1966" 
d="M117 924h197q43 -47 72 -107l655 73q40 5 77 5q57 0 159 -14l492 -66q90 -12 115.5 -32t25.5 -54q0 -79 -138 -79q-41 0 -120 7l-334 28q128 -100 161.5 -147t33.5 -85q0 -65 -66 -65q-36 0 -89 18q35 -53 35 -93q0 -29 -23.5 -50.5t-60.5 -21.5q-54 0 -127 58
q8 -44 8 -70q0 -62 -45.5 -87.5t-90.5 -25.5q-34 0 -58 16t-56 62q-25 38 -37.5 45t-123.5 15q-117 7 -172 30.5t-120 77.5q-50 42 -59 44.5t-29 2.5q-61 -186 -106 -283h-179q-24 98 -32 177t-8 200q0 235 43 421z" />
    <glyph glyph-name="a12" unicode="+" horiz-adv-x="1923" 
d="M346 418l-16 -15q-10 -21 -25.5 -32.5t-73.5 -19.5t-79 -8q-24 0 -37.5 9.5t-17 25t-8 95.5t-4.5 135q0 53 6 99q7 54 8 78q8 171 27.5 204t95.5 33q53 0 80.5 -7t34 -14.5t28.5 -49.5l18 -10q33 15 90 44.5t123.5 46.5t154 29t233.5 19t224 7q90 0 195 -8l174 -12
q68 -5 105 -24t54.5 -43.5t17.5 -41.5q0 -51 -43 -85.5t-134 -37.5l-210 -6l-3 -14q15 -41 15 -62q0 -26 -26 -66q-27 -40 -82 -53q-29 -7 -37 -21q0 -10 6 -31q4 -14 4 -24q0 -73 -93 -99q-18 -5 -23 -16q-1 -10 -8 -52q-14 -24 -47 -35t-56 -11q-40 0 -123 19
q-64 16 -99 16q-33 0 -112 -12q-94 -15 -133 -15q-37 0 -79 10.5t-125 54.5zM1472 895q31 10 42 10q7 0 30 -3q15 -2 32 -2q51 0 86.5 16t35.5 40q0 22 -25 35.5t-104 22.5l-38 -6q-7 0 -66 13q-104 1 -134 -2q-29 -4 -36 -4l-40 4q-33 3 -174 3q-73 0 -116 -16l5 -10
q81 -35 151 -80q43 -28 67 -28q38 0 87 13q14 3 20 3q7 0 20 -4t18 -5l82 -2zM1083 870q-81 62 -173 93.5t-153 31.5q-67 0 -172.5 -30.5t-148.5 -58.5t-66.5 -81t-23.5 -121q0 -129 5 -180.5t65.5 -80t136.5 -28.5q39 0 99.5 8.5t129.5 16.5l1 7q0 17 -45 52q-8 6 -21 19
l-23 76q-28 0 -69 -6q-60 -7 -98 -7q-43 0 -56.5 14.5t-13.5 25.5q0 18 24 18q12 0 29 -2q61 -7 87 -7t63.5 7t42 9.5t4.5 11.5q0 10 -16 22l-167 -9q-74 28 -82.5 38.5t-8.5 24.5q0 10 5 24q41 -3 97 -17q73 -18 120 -18q85 0 85 37q0 14 -23 40.5t-46 43.5l3 19q17 5 26 5
q34 0 79 -50q31 -34 57 -34q25 0 25 22q0 17 -26 52q17 17 24 17q16 0 59 -35q38 -30 45.5 -31t40 -13.5t63.5 -15.5l10 17zM226 953q-15 14 -25 14q-5 0 -21.5 -8t-21 -17t-5.5 -38l-7 -71q-4 -39 -10 -88q-16 -114 -16 -171q0 -17 3 -38l10 -8l23 14v71l9 12l13 -3
q1 -7 1 -13l-3 -99q0 -7 1 -22l12 -19q17 11 20 21l-7 116q0 129 12 219q12 92 12 128zM300 890h-15q-18 -17 -24 -28.5t-8 -34.5l-20 -202v-132l14 -9l15 17v35l12 3l20 -44l8 9v207q0 11 3 20q16 97 16 121q0 17 -21 38zM1218 798q-34 29 -60 41h-16q-24 -23 -24 -37
q0 -16 18 -30t36 -14q16 0 26 5t23 21zM1273 835q11 -33 11 -46q0 -31 -41 -54.5t-95 -23.5q-17 0 -42 4t-59 11l-16 -47q38 -17 90 -17q85 0 144.5 29t59.5 72q0 35 -30 67zM955 771h-16q-28 -18 -28 -31q0 -15 39 -37h18q23 16 23 26q0 19 -36 42zM893 666q-27 37 -54 37
q-15 0 -25.5 -10.5t-10.5 -25.5q0 -18 15.5 -35t36.5 -17q38 0 38 51zM1045 610l-92 29l-11 -11q-15 -35 -17 -39l-6 -12q0 -18 63 -42t125 -24q34 0 56 12.5t22 31.5q0 26 -15 39t-53 14zM818 565q-23 27 -42 27q-7 0 -16 -1q-11 -21 -11 -26v-5q17 -26 34 -36l11 -2l9 -1
q5 0 15 12l3 5zM1062 447q-27 19 -54 24q-55 12 -98 41q-19 13 -28 13q-12 0 -25.5 -17.5t-13.5 -24.5q0 -18 55.5 -50t105.5 -32q18 0 38 8l21 18z" />
    <glyph glyph-name="a13" unicode="," horiz-adv-x="1124" 
d="M705 608l208 495q22 53 40 71t50 18q38 0 51 -18t13 -32q0 -8 -10 -39l-190 -563zM686 673l-15 -49h-150l-172 433q-17 43 -17 66q0 21 20 34t49 13q25 0 43 -10.5t28 -31.5zM472 627q-96 -4 -110 -73l-129 129q32 45 81.5 71.5t90.5 28.5zM203 658l149 -148
q11 -81 74.5 -119t140.5 -36l184 -84l-147 -271h-472q42 78 42 144q0 33 -17 93q-16 58 -16 87q0 34 31 131q-25 26 -25 63q0 78 56 140zM855 498l-80 -181l-196 81q-71 4 -127.5 38.5t-56.5 81.5q0 30 23 49.5t59 19.5h148z" />
    <glyph glyph-name="a14" unicode="-" horiz-adv-x="1751" 
d="M1099 887q43 -24 108.5 -45.5t126.5 -27.5l25 37q8 13 14.5 16t24.5 4l75 7l24 75q8 26 21 35.5t55 9.5h115v-851h-90q-30 0 -53 7.5t-32 15t-28 32.5q-18 24 -29 36q-49 3 -71 3q-23 0 -38 39q-9 22 -22 43q-24 -5 -59 -26q-104 -64 -193 -64q-46 0 -136 26
q-121 36 -210 36q-31 0 -78 -9t-62 -9q-28 0 -107 20q-31 8 -50.5 11.5t-26.5 7.5t-28 24t-35 39l-185 -115q-16 -10 -25 -10q-10 0 -10 10q0 9 20 24l103 77q-18 28 -18 46q0 14 11 51q5 17 14 67q25 125 68.5 222t73 131t70.5 51q22 9 183 43q116 24 158 24q41 0 61.5 -7
t124.5 -55l147 113q12 3 19 3q24 0 47 -21.5t23 -47.5q0 -7 -3 -17zM937 902q-89 39 -151 39q-30 0 -148.5 -23.5t-144.5 -36t-70 -69t-76.5 -141.5t-46.5 -150q-13 -59 -17 -72q-7 -17 -7 -30q0 -25 18 -25q5 0 25 13t28 22q65 190 100 250.5t73 80.5q21 2 36.5 3t25.5 1
q79 0 151 -21zM1047 855l-251 -166q67 -59 67 -92q0 -38 -64 -57q-66 -20 -111 -44q-41 -22 -81 -36q-37 27 -80 27q-71 0 -116 -49q-4 -10 -4 -17q0 -20 16.5 -37.5t44.5 -24t60 -11.5q53 -11 79 -11q33 0 83 8q48 8 73 8q36 0 177 -38q79 -21 124 -21q40 0 66 8t88.5 38
t101.5 57q11 84 11 155q0 110 -15 214q-135 19 -269 89zM684 711q-42 6 -76 6q-54 0 -74 -12t-43.5 -57.5t-53.5 -126.5zM535 521q30 0 88 -19q52 31 122 59q53 20 62 25.5t9 13.5q0 5 -6 12l-48 54z" />
    <glyph glyph-name="a15" unicode="." horiz-adv-x="1866" 
d="M1628 409l-351 488q-62 -32 -130 -104l-854 493l231 91l728 -421q49 -28 62 -42.5t42 -54.5l346 -480q35 -49 35 -82q0 -65 -80 -65q-12 0 -34 2l-594 58q-45 5 -65 9t-71 33l-729 420l-36 246l852 -492q-22 -82 -24 -166l599 -60q2 87 73 127zM1112 750
q-69 -98 -111 -191l-857 495l110 191z" />
    <glyph glyph-name="a16" unicode="/" horiz-adv-x="1911" 
d="M1680 781l-548 247q-37 -59 -60 -155h-986l154 194h841q56 0 74.5 -6t64.5 -27l539 -242q81 -37 81 -86q0 -44 -77 -79l-543 -246q-39 -18 -59.5 -25.5t-79.5 -7.5h-841l-154 194h983q22 -82 63 -155l548 247q-22 41 -22 75q0 35 22 72zM1063 818q-6 -65 -6 -111
q0 -56 5 -110h-990v221h991z" />
    <glyph glyph-name="a105" unicode="0" horiz-adv-x="1866" 
d="M1555 1133l-599 -60q-2 -70 26 -164l-854 -493l36 245l729 420q48 28 66.5 32.5t69.5 9.5l589 59q25 2 39 2q33 0 57 -17.5t24 -43.5q0 -34 -34 -81l-348 -486q-27 -38 -40 -53t-64 -44l-728 -421l-231 91l852 492q60 -61 132 -103l351 488q-73 46 -73 127zM1002 857
q50 -109 110 -192l-858 -495l-110 191z" />
    <glyph glyph-name="a17" unicode="1" horiz-adv-x="1866" 
d="M1122 1137q135 -124 323 -231t415 -181v-36q-226 -74 -414 -181t-324 -231h-781q-107 0 -187 142t-80 300q0 94 36.5 199t95.5 162t120 57h796zM1119 1066h-794q-69 0 -125 -118t-56 -233q0 -119 60 -245t137 -126h778q108 101 276 196t331 149l-415 -17
q-18 -61 -133 -61q-68 0 -103 28.5t-35 67.5q0 38 35 67t103 29q115 0 133 -62l415 -16q-100 28 -207.5 80t-213.5 119.5t-186 141.5z" />
    <glyph glyph-name="a18" unicode="2" horiz-adv-x="1866" 
d="M1152 1137q71 -68 152.5 -126t239.5 -137.5t346 -148.5v-36q-184 -67 -343.5 -147t-241 -138.5t-153.5 -126.5h-781q-107 0 -187 142t-80 300q0 94 36.5 199t95.5 162t120 57h796zM1752 690v34l-411 18q-18 61 -129 61q-72 0 -107 -28t-35 -68q0 -38 34 -67t107 -29
q112 0 130 61z" />
    <glyph glyph-name="a19" unicode="3" horiz-adv-x="1866" 
d="M479 275q97 218 209 420.5t241 384.5t197 249.5t94 79t115 24t122 12.5q21 0 21 -16q0 -10 -7.5 -19.5t-43.5 -41.5q-181 -168 -398 -496t-363 -689q-59 -144 -81 -173q-22 -30 -139 -30q-84 0 -100.5 17t-66.5 93q-82 127 -189 240q-54 57 -54 86q0 40 59 81.5t98 41.5
q50 0 123 -55t163 -209z" />
    <glyph glyph-name="a20" unicode="4" horiz-adv-x="1866" 
d="M564 463q92 192 182.5 354t213 338.5t202 260t115 102.5t125.5 33.5t149 14.5q36 0 58 -22.5t22 -54.5q0 -26 -12.5 -45.5t-56.5 -59.5q-198 -183 -409.5 -516.5t-337.5 -647.5q-49 -121 -70.5 -159t-60 -59t-142.5 -21q-76 0 -105 10.5t-48 31.5t-67 95
q-68 105 -183 231q-70 77 -70 127q0 68 77 125.5t141 57.5q63 0 136.5 -50.5t140.5 -145.5z" />
    <glyph glyph-name="a21" unicode="5" horiz-adv-x="1866" 
d="M1353 0l-573 573l-573 -573l-111 111l573 573l-573 573l111 111l573 -573l573 573l111 -111l-573 -573l573 -573z" />
    <glyph glyph-name="a22" unicode="6" horiz-adv-x="1866" 
d="M1142 0l-363 363l-363 -363l-321 321l363 363l-363 363l321 321l363 -363l363 363l321 -321l-363 -363l363 -362z" />
    <glyph glyph-name="a23" unicode="7" horiz-adv-x="1866" 
d="M445 629l-135 542q-6 24 -6 36q0 41 22.5 70.5t46.5 29.5q51 0 126 -91.5t166 -321.5q41 31 50.5 39.5t140.5 148.5q122 132 150 155t56 23q39 0 69.5 -40t30.5 -72l-1 -8q-10 -3 -23 -4q-23 -3 -34 -12t-19 -33q-4 -14 -14 -23q-26 -24 -54.5 -66t-98 -155t-103 -158.5
t-46 -69.5t-12.5 -55q0 -75 43 -192.5t111 -219.5q43 -63 43 -70l-5 -12q-9 -16 -9 -24q0 -7 5 -20q-51 -26 -59 -32.5t-8 -26.5l2 -11q0 -7 -8 -7q-7 0 -32 15t-46 41q-19 23 -26 28.5t-24 10.5q-13 3 -20 12q-31 37 -61 51q-13 6 -22 24q-7 13 -109 187
q-103 -91 -212 -213q-140 -156 -213 -224q0 21 -1 28.5t-22 36.5q-9 14 -12 28q-3 12 -6 15t-15 6q-9 2 -14 16q-5 17 -19 23q-15 7 -15 15l2 10l1 8l-3 8l-4 11q0 24 256 315q102 117 190 228z" />
    <glyph glyph-name="a24" unicode="8" horiz-adv-x="1866" 
d="M500 693l-128 515q-7 29 -7 45q0 60 34.5 102t76.5 42q72 0 154.5 -102t156.5 -286q28 27 166 176.5t170.5 169.5t65.5 20q54 0 98 -51t44 -106q0 -47 -54 -50q-19 -1 -21 -5l-9 -29l-19 -22q-52 -57 -163.5 -233t-136.5 -206t-25 -62q0 -72 45 -190.5t121 -226.5
q32 -45 32 -66q0 -9 -9 -26l-6 -10q5 -10 5 -19q0 -17 -9 -26t-37 -21l-16 -9l-5 -3q0 -60 -49 -60q-23 0 -58.5 24.5t-52.5 47.5q-14 20 -30 25q-24 7 -39 25l-23 25q-3 4 -25 15q-28 15 -52 64q-20 43 -70 119l-334 -360q-66 -76 -95 -76q-14 0 -23.5 8.5t-11 15.5
t-3.5 51l-19 22l-5 23l-22 11l-18 31l-35 33l-1 30l-7 27q-1 13 15 43t127 164t133 155q98 92 105 121q19 79 69 95z" />
    <glyph glyph-name="a25" unicode="9" horiz-adv-x="1866" 
d="M992 1419v-499h499v-422h-499v-498h-422v498h-498v422h498v499h422zM950 1377h-338v-499h-498v-338h498v-498h338v498h499v338h-499v499zM896 1322v-498h498v-229h-498v-498h-229v498h-498v229h498v498h229z" />
    <glyph glyph-name="a26" unicode=":" horiz-adv-x="1556" 
d="M989 1419v-499h499v-422h-499v-498h-422v498h-498v422h498v499h422z" />
    <glyph glyph-name="a27" unicode=";" horiz-adv-x="1554" 
d="M940 1411v-542h542v-326h-542v-543h-326v543h-543v326h543v542h326zM925 854h-297v-297h297v297z" />
    <glyph glyph-name="a28" unicode="&#x3c;" horiz-adv-x="1544" 
d="M983 1399v-488h488v-422h-488v-489h-422v489h-489v422h489v488h422zM968 896h-393v-393h393v393z" />
    <glyph glyph-name="a6" unicode="=" horiz-adv-x="1012" 
d="M368 1414h277v-348h297v-226h-297v-840h-277v840h-297v226h297v348z" />
    <glyph glyph-name="a7" unicode="&#x3e;" horiz-adv-x="1130" 
d="M322 1414h318l169 -169v-127h133l169 -169v-266h-302v-683h-318l-169 169v514h-134l-169 169v266h303v296zM374 1361v-295h-302v-214h302v-683h266v683h302v214h-302v295h-266z" />
    <glyph glyph-name="a8" unicode="?" horiz-adv-x="1100" 
d="M375 1414h350v-300h296v-323h-296v-791h-350v791h-297v323h297v300zM417 1372v-300h-297v-238h297v-792h265v792h297v238h-297v300h-265zM471 1317h157v-300h296v-129h-296v-791h-157v791h-296v129h296v300z" />
    <glyph glyph-name="a9" unicode="@" horiz-adv-x="1182" 
d="M301 193v12q117 89 183.5 200.5t78.5 278.5q-166 -9 -287 -85t-191 -177h-12v579h12q70 -101 191 -177.5t287 -85.5q-12 169 -79 280.5t-183 198.5v12h580v-12q-116 -87 -183 -198.5t-79 -280.5q166 9 287.5 85.5t190.5 177.5h12v-579h-12q-70 101 -191 177t-287 85
q12 -167 78 -278.5t184 -200.5v-12h-580z" />
    <glyph glyph-name="a10" unicode="A" horiz-adv-x="1417" 
d="M707 1475l218 -374h433l-218 -377l218 -375h-433l-218 -374l-214 374h-433l217 375l-217 377h433zM707 1376l-156 -275h314zM147 1051l158 -277l158 277h-316zM521 1051l-187 -327l187 -326h376l187 326l-187 327h-376zM953 1051l159 -278l161 278h-320zM305 675
l-158 -277h318zM1112 674l-159 -276h318zM551 349l156 -278l162 278h-318z" />
    <glyph glyph-name="a29" unicode="B" horiz-adv-x="1610" 
d="M702 771l39 40q30 30 30 62q0 35 -33 153q-54 192 -54 285q0 54 29.5 90.5t91.5 36.5q61 0 91 -36.5t30 -92.5q0 -92 -54 -283q-33 -117 -33 -152q0 -33 30 -63l39 -40q29 -29 64 -29q33 0 151 33q192 54 285 54q54 0 90.5 -30t36.5 -91q0 -62 -36.5 -91.5t-91.5 -29.5
q-94 0 -284 53q-117 33 -151 33q-35 0 -64 -29l-39 -40q-30 -30 -30 -62q0 -34 33 -153q54 -192 54 -285q0 -54 -30 -90t-91 -36q-62 0 -91.5 36t-29.5 92q0 93 54 283q33 118 33 152q0 33 -30 63l-39 40q-29 29 -64 29q-33 0 -152 -33q-191 -53 -284 -53q-55 0 -91 29.5
t-36 91.5q0 61 36.5 91t91.5 30q93 0 283 -54q118 -33 152 -33q35 0 64 29z" />
    <glyph glyph-name="a30" unicode="C" 
d="M856 870q58 -30 87 -88q38 8 63.5 21t106.5 77q124 97 213 97t154.5 -66t65.5 -166t-56 -173.5t-162 -73.5q-51 0 -103 21.5t-135 91.5q-52 44 -80 58t-67 20q-31 -62 -85 -85q7 -40 21 -69.5t57 -81.5q68 -82 92.5 -129.5t24.5 -110.5q0 -100 -71.5 -156.5t-172.5 -56.5
q-110 0 -173.5 63t-63.5 155q0 60 26.5 110t98.5 136q37 44 49 70.5t18 65.5q-59 34 -89 91q-33 -6 -61 -19t-83 -57q-106 -84 -155 -100t-92 -16q-98 0 -156.5 67.5t-58.5 166.5t62 169.5t157 70.5q101 0 230 -103q66 -53 94 -66.5t66 -19.5q27 53 83 84q-12 69 -95 176
q-60 77 -79.5 117.5t-19.5 97.5q0 94 65.5 154t174.5 60t174 -59t65 -152q0 -58 -22.5 -108.5t-80.5 -123.5q-44 -56 -62 -89.5t-25 -70.5zM812 1078q84 119 84 175q0 35 -24.5 62.5t-62.5 27.5q-36 0 -63.5 -20.5t-27.5 -58.5q0 -71 94 -186zM1150 737q118 -92 174 -92
q38 0 64.5 26t26.5 67q0 38 -25 62t-62 24q-53 0 -178 -87zM468 737q-74 50 -112 67t-71 17q-35 0 -60 -25t-25 -63t25.5 -63t61.5 -25t72 19t109 73zM811 393q-49 -70 -67 -106.5t-18 -67.5q0 -34 25 -61.5t66 -27.5q39 0 63.5 25.5t24.5 56.5q0 68 -94 181z" />
    <glyph glyph-name="a31" unicode="D" 
d="M856 870q58 -30 87 -88q38 8 63.5 21t106.5 77q124 97 213 97t154.5 -66t65.5 -166t-56 -173.5t-162 -73.5q-51 0 -103 21.5t-135 91.5q-52 44 -80 58t-67 20q-31 -62 -85 -85q7 -40 21 -69.5t57 -81.5q68 -82 92.5 -129.5t24.5 -110.5q0 -100 -71.5 -156.5t-172.5 -56.5
q-110 0 -173.5 63t-63.5 155q0 60 26.5 110t98.5 136q37 44 49 70.5t18 65.5q-59 34 -89 91q-33 -6 -61 -19t-83 -57q-106 -84 -155 -100t-92 -16q-98 0 -156.5 67.5t-58.5 166.5t62 169.5t157 70.5q101 0 230 -103q66 -53 94 -66.5t66 -19.5q27 53 83 84q-12 69 -95 176
q-60 77 -79.5 117.5t-19.5 97.5q0 94 65.5 154t174.5 60t174 -59t65 -152q0 -58 -22.5 -108.5t-80.5 -123.5q-44 -56 -62 -89.5t-25 -70.5z" />
    <glyph glyph-name="a32" unicode="E" horiz-adv-x="1618" 
d="M1102 1233q-129 -43 -195 -119.5t-66 -162.5v-183h183q94 0 168.5 70.5t113.5 190.5q65 -211 240 -269v-47q-175 -58 -240 -269q-43 129 -119.5 195t-162.5 66h-183v-183q0 -94 70.5 -168.5t190.5 -113.5q-211 -65 -269 -240h-47q-58 175 -269 240q129 43 195 119.5
t66 162.5v183h-183q-94 0 -168.5 -70.5t-113.5 -190.5q-65 211 -240 269v47q175 58 240 269q43 -129 119.5 -195t162.5 -66h183v183q0 94 -70.5 168.5t-190.5 113.5q211 65 269 240h47q58 -175 269 -240z" />
    <glyph glyph-name="a33" unicode="F" horiz-adv-x="1624" 
d="M770 1473h85q19 -111 54.5 -203t112 -187.5t178.5 -166.5t186 -100t163 -37v-85q-79 -8 -164.5 -37.5t-189 -102.5t-178 -168.5t-109 -185.5t-53.5 -200h-85q-19 111 -54.5 203t-112 187.5t-178.5 166.5t-186 100t-163 37v85q79 8 164.5 37.5t189 102.5t178 168.5
t109 185.5t53.5 200z" />
    <glyph glyph-name="a34" unicode="G" horiz-adv-x="1626" 
d="M771 1473h85q19 -111 54.5 -203t112 -187.5t178.5 -166.5t186 -100t163 -37v-85q-79 -8 -164.5 -37.5t-189 -102.5t-178 -168.5t-109 -185.5t-53.5 -200h-85q-19 111 -54.5 203t-112 187.5t-178.5 166.5t-186 100t-163 37v85q79 8 164.5 37.5t189 102.5t178 168.5
t109 185.5t53.5 200zM814 1459q-27 -127 -63 -217t-109.5 -183.5t-170.5 -164t-179 -102.5t-201 -55q120 -24 200.5 -55.5t176 -99.5t170.5 -162t111.5 -184.5t64.5 -221.5q26 128 62 217.5t109.5 183t170.5 164t179 102.5t201 56q-120 23 -200 54.5t-175.5 99.5t-170.5 162
t-112 184.5t-64 221.5z" />
    <glyph glyph-name="a35" unicode="H" horiz-adv-x="1671" 
d="M1001 905l518 45q14 1 22 1q55 0 55 -45q0 -22 -35 -45l-449 -287l204 -512q7 -16 7 -25q0 -12 -12 -24.5t-25 -12.5q-19 0 -44 22l-406 351l-406 -351q-25 -22 -43 -22q-15 0 -26.5 12.5t-11.5 25.5q0 8 7 24l203 512l-448 287q-35 23 -35 45q0 45 56 45q7 0 20 -1
l519 -45l118 506q9 39 18 50.5t29 11.5q19 0 28.5 -11.5t18.5 -50.5z" />
    <glyph glyph-name="a36" unicode="I" horiz-adv-x="1685" 
d="M668 909l94 495q8 43 26 56.5t45 13.5q50 0 67 -14t24 -56l94 -495l510 67q17 3 27 3q28 0 41.5 -41t13.5 -54q0 -26 -36 -47l-451 -256l222 -468q12 -26 12 -39q0 -20 -41.5 -47t-53.5 -27q-20 0 -46 25l-371 353l-371 -353q-27 -25 -45 -25q-14 0 -55.5 27t-41.5 46
q0 13 13 40l222 468l-455 256l-21 12q-15 12 -15 31q0 17 13.5 58t43.5 41q8 0 25 -3zM818 1415l-106 -560l-566 73l-14 -41l500 -283l-241 -517l42 -27l412 387l411 -387l43 27l-242 517l500 283l-14 41l-565 -73l-110 560h-50z" />
    <glyph glyph-name="a37" unicode="J" horiz-adv-x="1616" 
d="M807 1460q307 0 525.5 -218.5t218.5 -524.5q0 -307 -219 -525.5t-525 -218.5t-524.5 219t-218.5 525t218.5 524.5t524.5 218.5zM948 921l-100 430q-8 32 -16 42t-25 10q-16 0 -24 -9.5t-16 -42.5l-100 -430l-440 37q-13 1 -18 1q-24 0 -36 -9.5t-12 -28.5t31 -38
l380 -243l-173 -436q-5 -14 -5 -21q0 -10 9.5 -21t22.5 -11q15 0 37 19l344 298l345 -298q22 -19 38 -19q11 0 21 10.5t10 21.5q0 7 -5 21l-173 436l380 243q30 19 30 38t-11.5 28.5t-34.5 9.5q-7 0 -19 -1z" />
    <glyph glyph-name="a38" unicode="K" horiz-adv-x="1722" 
d="M1026 905l518 45q14 1 22 1q55 0 55 -45q0 -22 -35 -45l-449 -287l204 -512q7 -16 7 -25q0 -12 -12 -24.5t-25 -12.5q-19 0 -44 22l-406 351l-406 -351q-25 -22 -43 -22q-15 0 -26.5 12.5t-11.5 25.5q0 8 7 24l203 512l-448 287q-35 23 -35 45q0 45 56 45q7 0 20 -1
l519 -45l118 506q9 39 18 50.5t29 11.5q19 0 28.5 -11.5t18.5 -50.5zM860 400q110 0 187.5 77.5t77.5 185.5q0 109 -78 186.5t-186 77.5q-109 0 -186.5 -77.5t-77.5 -186.5t78 -186t185 -77z" />
    <glyph glyph-name="a39" unicode="L" horiz-adv-x="1685" 
d="M668 909l94 495q8 46 22.5 57.5t56.5 11.5q51 0 63 -13.5t20 -55.5l94 -495l510 67q17 3 27 3q28 0 41.5 -41t13.5 -54q0 -26 -36 -47l-451 -256l222 -468q12 -26 12 -39q0 -20 -41.5 -47t-53.5 -27q-20 0 -46 25l-371 353l-371 -353q-27 -25 -45 -25q-14 0 -55.5 27
t-41.5 46q0 13 13 40l222 468l-455 256l-21 12q-15 12 -15 31q0 17 13.5 58t43.5 41q8 0 25 -3zM818 1415l-106 -560l-566 73l-14 -41l500 -283l-241 -517l42 -27l412 387l411 -387l43 27l-242 517l500 283l-14 41l-565 -73l-110 560h-50zM844 460q-86 0 -148.5 62
t-62.5 149q0 88 62.5 150t149.5 62t149 -62.5t62 -149.5q0 -86 -61.5 -148.5t-150.5 -62.5z" />
    <glyph glyph-name="a40" unicode="M" horiz-adv-x="1706" 
d="M678 909l94 495q8 46 22.5 57.5t56.5 11.5q51 0 63 -13.5t20 -55.5l94 -495l510 67q17 3 27 3q28 0 41.5 -41t13.5 -54q0 -26 -36 -47l-451 -256l222 -468q12 -26 12 -39q0 -20 -41.5 -47t-53.5 -27q-20 0 -46 25l-371 353l-371 -353q-27 -25 -45 -25q-14 0 -55.5 27
t-41.5 46q0 13 13 40l222 468l-455 256l-21 12q-15 12 -15 31q0 17 13.5 58t43.5 41q8 0 25 -3zM828 1415l-106 -560l-566 73l-14 -41l500 -283l-241 -517l42 -27l412 387l411 -387l43 27l-242 517l500 283l-14 41l-565 -73l-110 560h-50zM853 1295l97 -489l513 66
l-461 -251l225 -468l-372 357l-373 -357l226 468l-462 251l514 -66z" />
    <glyph glyph-name="a41" unicode="N" horiz-adv-x="1671" 
d="M661 909l94 495q8 46 22.5 57.5t56.5 11.5q51 0 63 -13.5t20 -55.5l94 -495l510 67q17 3 27 3q28 0 41.5 -41t13.5 -54q0 -26 -36 -47l-451 -256l222 -468q12 -26 12 -39q0 -20 -41.5 -47t-53.5 -27q-20 0 -46 25l-371 353l-371 -353q-27 -25 -45 -25q-14 0 -55.5 27
t-41.5 46q0 13 13 40l222 468l-455 256l-21 12q-15 12 -15 31q0 17 13.5 58t43.5 41q8 0 25 -3zM811 1415l-106 -560l-566 73l-14 -41l500 -283l-241 -517l42 -27l412 387l411 -387l43 27l-242 517l500 283l-14 41l-565 -73l-110 560h-50zM838 529l-307 -298l-7 -3
q-12 0 -12 12l3 8l185 383l-358 199q-9 5 -9 12q0 13 18 10l406 -58l70 371q1 9 10 9q10 0 12 -9l70 -371l406 59l8 1q10 0 10 -11q0 -8 -10 -13l-357 -199l185 -383l2 -8q0 -12 -12 -12l-6 3z" />
    <glyph glyph-name="a42" unicode="O" horiz-adv-x="1702" 
d="M841 1471h20l156 -600l606 35l6 -21l-512 -329l233 -572l-16 -12l-483 391l-479 -391l-16 9l228 578l-512 322l7 25l606 -35zM851 1429l-150 -582l146 -199l-740 235l504 -318l236 76l-461 -634l465 383v250l467 -630l-228 558l-234 77l740 241l-593 -37l-152 -199v779z
" />
    <glyph glyph-name="a43" unicode="P" horiz-adv-x="1890" 
d="M1173 966l254 24q30 3 52 3q41 0 81 -14l183 -64q45 -16 45 -35q0 -21 -38 -45l-435 -277l203 -490q13 -31 13 -41q0 -25 -29 -25q-7 0 -37 3l-176 21q-46 5 -71 15.5t-55 36.5l-235 205l-273 -235q-38 -32 -69 -32q-8 0 -22 1l-139 18q-77 9 -77 75q0 22 12 54l167 423
l-358 231q-46 30 -57 49.5t-11 38.5q0 32 24 58t76 26q13 0 33 -1l417 -35l98 423q21 93 78 93q7 0 18 -2l157 -24q36 -6 52.5 -24t26.5 -60zM986 905l-107 460q-8 35 -17 45.5t-26 10.5t-25.5 -10.5t-17.5 -45.5l-107 -460l-470 41q-12 1 -19 1q-51 0 -51 -41q0 -20 32 -41
l407 -260l-185 -465q-6 -15 -6 -22q0 -11 10.5 -23t24.5 -12q16 0 39 20l368 319l369 -319q23 -20 40 -20q12 0 22.5 11.5t10.5 22.5q0 8 -6 23l-185 465l407 260q32 21 32 41q0 41 -50 41q-7 0 -19 -1z" />
    <glyph glyph-name="a44" unicode="Q" horiz-adv-x="1524" 
d="M629 1473h265l-69 -625l509 370l129 -225l-578 -256l578 -257l-129 -225l-509 370l69 -625h-265l70 625l-510 -370l-129 225l578 257l-578 256l129 225l510 -370z" />
    <glyph glyph-name="a45" unicode="R" horiz-adv-x="1481" 
d="M609 1473h264l-65 -594h-134zM1313 1214l132 -226l-545 -236l-67 112zM582 752l-545 236l131 226l481 -350zM582 720l67 -112l-481 -350l-131 227zM900 720l545 -235l-132 -227l-480 350zM808 594l65 -594h-264l65 594h134z" />
    <glyph glyph-name="a46" unicode="S" horiz-adv-x="1534" 
d="M800 774l435 436l47 -47l-435 -435h615v-66h-615l435 -435l-47 -47l-435 436v-616h-66v616l-435 -436l-47 47l436 435h-616v66h616l-436 435l47 47l435 -436v616h66v-616z" />
    <glyph glyph-name="a47" unicode="T" horiz-adv-x="1618" 
d="M889 578q-10 -4 -23 -9v-569h-113v569q-14 5 -23 10l-403 -403l-80 80l403 403q-6 11 -10 22h-569v114h569q4 10 10 23l-403 402l80 81l403 -403q11 5 23 9v570h113v-570q10 -3 23 -9l402 403l81 -81l-403 -402q5 -10 10 -23h569v-114h-569q-4 -12 -10 -23l403 -402
l-81 -80z" />
    <glyph glyph-name="a48" unicode="U" horiz-adv-x="1622" 
d="M792 1430h38l99 -433l375 237l26 -26l-237 -377l433 -97v-38l-433 -98l237 -375l-26 -27l-377 237l-97 -433h-38l-96 432l-378 -236l-26 27l237 376l-433 97v38l434 98l-238 376l26 26l374 -238zM817 1402l-104 -447l99 -235l-483 479l244 -387l236 -98h-660l424 -95
l238 88l-474 -465l376 235l104 229v-638l90 417l-83 222l468 -475l-242 381l-225 101h681l-456 104l-226 -98l458 465l-375 -230l-90 -233v680z" />
    <glyph glyph-name="a49" unicode="V" horiz-adv-x="1423" 
d="M936 715l413 -327l-36 -62l-490 196l-76 -522h-71l-76 522l-489 -196l-36 62l413 327l-413 328l36 61l489 -195l76 522h71l76 -522l490 195l36 -61z" />
    <glyph glyph-name="a50" unicode="W" horiz-adv-x="1589" 
d="M805 1445l75 -509l525 414l17 -16l-415 -526l510 -75v-22l-506 -78l411 -522l-17 -16l-521 412l-78 -507h-22l-75 508l-526 -413l-16 16l413 526l-508 75v22l504 78l-409 522l16 16l522 -411l77 506h23z" />
    <glyph glyph-name="a51" unicode="X" horiz-adv-x="1573" 
d="M767 1430h38l99 -433l375 237l26 -26l-237 -377l433 -97v-38l-433 -98l237 -375l-26 -27l-377 237l-97 -433h-38l-96 432l-378 -236l-26 27l237 376l-433 97v38l434 98l-238 376l26 26l374 -238z" />
    <glyph glyph-name="a52" unicode="Y" horiz-adv-x="1622" 
d="M506 872l-198 283q-41 58 -41 83q0 19 13.5 31.5t30.5 12.5q28 0 99 -49l273 -184l58 317q17 88 32 107t38 19t38 -18.5t32 -107.5l58 -317l273 184q72 49 99 49q18 0 31 -12.5t13 -30.5q0 -26 -41 -84l-197 -283l345 -69q58 -12 73 -22t15 -35t-15.5 -35.5t-72.5 -21.5
l-345 -70l197 -282q41 -58 41 -83q0 -20 -13.5 -32t-29.5 -12q-28 0 -100 48l-273 184l-58 -316q-17 -89 -32 -107.5t-38 -18.5t-38 18t-32 108l-58 316l-273 -184q-72 -48 -99 -48q-18 0 -31 12.5t-13 30.5q0 26 41 84l198 282l-346 70q-59 11 -73.5 21.5t-14.5 36.5
q0 25 15.5 35t72.5 21z" />
    <glyph glyph-name="a53" unicode="Z" horiz-adv-x="1554" 
d="M1125 705l359 -107l-12 -65l-377 40l294 -239l-36 -53l-330 179l178 -330l-53 -36l-237 291l39 -372l-64 -13l-109 360l-108 -360l-64 13l39 372l-237 -291l-53 36l178 330l-331 -179l-35 53l294 239l-377 -40l-12 65l358 107l-358 106l12 65l377 -40l-294 239l35 53
l331 -179l-178 330l53 36l237 -291l-39 372l64 13l108 -360l109 360l64 -13l-39 -372l237 291l53 -36l-178 -330l330 179l36 -53l-294 -239l377 40l12 -65z" />
    <glyph glyph-name="a54" unicode="[" horiz-adv-x="1448" 
d="M633 841q24 0 39 20t15 48q0 34 -33 153q-53 192 -53 284q0 54 29.5 90.5t91.5 36.5q61 0 91 -36t30 -92q0 -92 -54 -283q-33 -119 -33 -151q0 -31 16 -50.5t37 -19.5q27 0 66.5 29.5t118.5 113.5q174 186 269 186q48 0 82 -33t34 -83q0 -35 -16.5 -62.5t-67 -59
t-102 -48.5t-152.5 -43q-127 -32 -157 -53.5t-30 -49.5q0 -26 23.5 -47t136.5 -46q195 -44 282 -93.5t87 -125.5q0 -49 -34 -82.5t-80 -33.5q-49 0 -109 35t-196 175q-70 73 -98 92.5t-53 19.5q-45 0 -45 -50q0 -42 37 -191q40 -159 40 -238q0 -73 -32 -113t-87 -40
q-56 0 -87.5 40t-31.5 112q0 68 15.5 136.5t48.5 201.5q13 51 13 82q0 55 -43 55q-29 0 -65.5 -27t-134.5 -122q-108 -104 -161 -136.5t-100 -32.5q-44 0 -76.5 34t-32.5 85q0 38 21.5 66.5t83.5 59.5t166 62t144 41q109 28 109 73q0 35 -33 55t-129 41q-145 31 -257 85.5
t-112 129.5q0 45 28.5 83t80.5 38q56 0 120.5 -37t155.5 -139q129 -145 184 -145z" />
    <glyph glyph-name="a55" unicode="\" horiz-adv-x="1450" 
d="M692 921l-70 283q-18 71 -18 116q0 79 31 124.5t86 45.5q58 0 92 -47.5t34 -122.5q0 -52 -17 -116l-73 -282q57 -12 97 -55l210 202q113 110 207 110q46 0 76 -33.5t30 -75.5q0 -52 -51.5 -102t-157.5 -79l-280 -78q10 -31 10 -59t-10 -59l280 -80q113 -32 162.5 -80.5
t49.5 -96.5q0 -41 -32 -74.5t-80 -33.5q-97 0 -205 105l-209 204q-40 -44 -97 -55l72 -282q17 -70 17 -116q0 -79 -31 -124.5t-86 -45.5q-58 0 -91.5 47.5t-33.5 122.5q0 52 16 116l72 282q-57 13 -96 55l-209 -203q-112 -109 -207 -109q-46 0 -76 33.5t-30 75.5
q0 51 51 101t158 80l280 78q-10 28 -10 58t9 58l-281 78q-110 31 -161 79.5t-51 97.5q0 42 32 75.5t80 33.5q97 0 205 -105l208 -204q38 44 98 57zM725 847q-39 0 -67 -28t-28 -67t28 -67t67 -28q40 0 68 28t28 67t-28 67t-68 28z" />
    <glyph glyph-name="a56" unicode="]" horiz-adv-x="1397" 
d="M699 877l-172 323q-22 42 -22 86q0 74 54 130.5t140 56.5q83 0 138 -55t55 -138q0 -38 -22 -80zM824 815l202 314q20 31 33.5 41t49 20.5t66.5 10.5q77 0 136.5 -56t59.5 -137q0 -60 -37 -110t-81 -66.5t-139 -16.5h-290zM573 815h-290q-95 0 -138.5 16t-81 66t-37.5 111
q0 81 59 137t139 56q32 0 65.5 -11t46.5 -19t35 -42zM824 670h361q77 0 131.5 -57t54.5 -137q0 -82 -57 -137t-143 -55q-90 0 -143 80zM573 670l-204 -306q-53 -80 -147 -80q-81 0 -138.5 55t-57.5 137t55.5 138t130.5 56h361zM699 596l171 -323q22 -42 22 -86
q0 -74 -54 -130.5t-139 -56.5q-84 0 -139 55t-55 138q0 38 23 80z" />
    <glyph glyph-name="a57" unicode="^" horiz-adv-x="1436" 
d="M727 881l-176 320q-20 36 -20 79q0 75 56.5 134t139.5 59q81 0 139 -57.5t58 -142.5q0 -36 -20 -72zM727 974l128 228q21 37 21 73q0 63 -42.5 106.5t-106.5 43.5t-106 -44.5t-42 -101.5q0 -40 21 -77zM594 818h-377q-71 0 -122.5 54.5t-51.5 132.5q0 82 54.5 137.5
t138.5 55.5q104 0 170 -98zM841 818l188 282q66 98 170 98q84 0 138.5 -55.5t54.5 -137.5q0 -80 -52.5 -133.5t-121.5 -53.5h-377zM590 670l-197 -299q-58 -87 -151 -87q-85 0 -142 55t-57 137t55.5 138t130.5 56h361zM509 624h-284q-57 0 -96.5 -41t-39.5 -103
q0 -66 44.5 -108.5t101.5 -42.5q36 0 65.5 12.5t53.5 49.5zM845 670h361q78 0 132 -57t54 -137q0 -81 -56.5 -136.5t-146.5 -55.5q-88 0 -147 87zM926 624l155 -233q19 -28 30 -36.5t38.5 -17t49.5 -8.5q59 0 103.5 42.5t44.5 108.5q0 61 -39 102.5t-97 41.5h-285zM727 592
l177 -320q19 -36 19 -79q0 -75 -56 -134t-140 -59q-80 0 -138 57t-58 142q0 37 20 73z" />
    <glyph glyph-name="a58" unicode="_" horiz-adv-x="1692" 
d="M855 171q-29 -54 -60.5 -87.5t-88.5 -58.5t-121 -25q-135 0 -236.5 96.5t-101.5 237.5q0 42 14.5 89t71.5 116q-72 14 -125.5 44.5t-95 103.5t-41.5 158q0 136 91.5 235.5t223.5 99.5q60 0 137 -32q-5 43 -5 69q0 110 91.5 201.5t234.5 91.5q134 0 227 -90.5t93 -211.5
q0 -18 -3 -49q77 36 140 36q136 0 227.5 -102t91.5 -232q0 -84 -53.5 -177.5t-201.5 -130.5q50 -52 72 -101t22 -115q0 -130 -101 -233.5t-234 -103.5q-171 0 -269 171zM847 946q-96 0 -164.5 -68.5t-68.5 -164.5q0 -95 68.5 -163.5t164.5 -68.5t164.5 68t68.5 164
q0 97 -68.5 165t-164.5 68z" />
    <glyph glyph-name="a59" unicode="`" horiz-adv-x="1669" 
d="M1210 1239l36 1q163 0 257.5 -142t94.5 -309q0 -62 -30.5 -134t-125.5 -130q28 -72 28 -126q0 -161 -151.5 -280t-281.5 -119q-55 0 -100.5 19t-102.5 64q-53 -41 -102.5 -62t-95.5 -21q-139 0 -288 123.5t-149 268.5q0 60 30 135q-96 57 -127 133t-31 135
q0 120 57 238.5t134 163.5t151 45q16 0 47 -3q21 79 62.5 132.5t121.5 86.5t190 33q108 0 189 -32t121.5 -84.5t65.5 -135.5zM855 1198q23 -93 55 -145.5t76 -85.5q128 152 128 272q0 48 -30 99t-104 76.5t-147 25.5q-120 0 -198 -54.5t-78 -141.5q0 -123 127 -277
q101 83 134 231h37zM388 890q39 -4 58 -4q106 0 200 56q-136 218 -283 218q-88 0 -161.5 -104t-73.5 -241q0 -97 57 -152.5t156 -55.5q92 0 210 50q-53 127 -175 195zM1296 850q-73 -42 -112.5 -86t-65.5 -108q108 -51 212 -51q107 0 160 56.5t53 149.5q0 127 -71 235.5
t-173 108.5q-55 0 -119.5 -39.5t-156.5 -174.5q95 -57 198 -57l63 5zM537 346q43 94 43 176q0 40 -13 89q-177 -50 -237 -114t-60 -138q0 -103 114.5 -199.5t227.5 -96.5q93 0 147.5 87t54.5 210q0 24 -4 72q-131 -9 -243 -108zM1101 322q-68 58 -122 81.5t-121 28.5
q-2 -40 -2 -59q0 -150 56.5 -230t142.5 -80q116 0 230.5 95t114.5 204q0 70 -67 136.5t-232 110.5q-9 -45 -9 -82q0 -97 39 -183z" />
    <glyph glyph-name="a60" unicode="a" horiz-adv-x="1616" 
d="M597 1254q-2 71 13.5 112.5t69 74t130.5 32.5t129.5 -31.5t69.5 -73.5t15 -114q65 80 147 80q84 0 158 -78.5t74 -151.5q0 -48 -22.5 -84t-70.5 -73q38 4 60 4q80 0 127.5 -66t47.5 -148q0 -89 -49.5 -152t-124.5 -63q-22 0 -58 3q90 -71 90 -144q0 -88 -71 -164.5
t-170 -76.5q-33 0 -68 22t-72 66q4 -34 4 -55q0 -83 -66.5 -128t-145.5 -45q-86 0 -153.5 47t-67.5 134q0 17 5 43q-35 -41 -72.5 -62t-78.5 -21q-81 0 -158 74.5t-77 162.5q0 47 20 79.5t62 64.5q-22 -2 -39 -2q-85 0 -134.5 57t-49.5 155q0 71 27 124t63.5 74.5t94.5 21.5
q9 0 31 -1q-78 70 -78 139q0 84 74.5 162t166.5 78q35 0 72 -19t75 -57zM873 926l108 268q18 45 18 84q0 78 -53.5 117.5t-135.5 39.5q-84 0 -136 -41t-52 -109q0 -46 18 -91l108 -268l47 9l-72 283q-7 26 -7 41q0 29 20 55.5t78 26.5q43 0 67 -23.5t24 -55.5q0 -18 -7 -44
l-73 -283zM984 828l235 102q143 62 143 159q0 82 -60 144t-135 62q-34 0 -68 -16t-48.5 -29.5t-30.5 -51.5l-123 -283l42 -26l162 269q14 24 31 31t34 7q40 0 69.5 -33t29.5 -63q0 -45 -69 -87l-239 -145zM720 914l-116 262q-26 61 -69.5 88t-77.5 27q-80 0 -143.5 -61
t-63.5 -136q0 -105 120 -155l264 -110l25 41l-260 151q-34 21 -43 37t-9 39q0 32 30.5 64.5t72.5 32.5q25 0 43 -16t46 -61l142 -230zM998 674l255 -102q49 -20 90 -20q77 0 121 50.5t44 134.5q0 88 -46 136.5t-113 48.5q-48 0 -96 -19l-256 -104l9 -48l272 69q36 9 53 9
q33 0 57 -23.5t24 -67.5q0 -45 -24.5 -68.5t-54.5 -23.5q-19 0 -55 9l-271 70zM623 678l-10 49l-256 -68q-46 -12 -73 -12q-36 0 -57.5 26.5t-21.5 65.5q0 43 24 67t57 24q11 0 29 -5l298 -73l10 47l-252 101q-53 21 -88 21q-91 0 -133 -51.5t-42 -123.5q0 -83 44.5 -140
t104.5 -57q56 0 132 32zM814 885q-69 0 -112 -43.5t-43 -102.5q0 -62 45.5 -107t105.5 -45t103.5 44t43.5 106q0 64 -43 106t-100 42zM809 778q17 0 29 -12t12 -29t-12 -29t-29 -12t-28.5 12t-11.5 29t11.5 29t28.5 12zM630 647l-237 -101q-69 -30 -106 -75.5t-37 -94.5
q0 -70 65 -133t136 -63q54 0 93.5 30t64.5 90l110 262l-40 26l-153 -255q-22 -36 -40 -45.5t-38 -9.5q-32 0 -65 31.5t-33 65.5q0 20 8.5 38t42.5 39l258 157zM984 644l-27 -38l253 -154q35 -21 45.5 -41.5t10.5 -37.5q0 -31 -29 -62.5t-66 -31.5q-39 0 -59 32l-173 277
l-40 -28l105 -240q29 -69 73.5 -105t93.5 -36q68 0 130.5 59.5t62.5 133.5q0 102 -124 158zM750 548l-101 -249q-21 -52 -21 -96q0 -75 48.5 -120t136.5 -45q82 0 132.5 44t50.5 109q0 44 -18 87l-110 270l-46 -9l74 -286q7 -26 7 -38q0 -32 -21.5 -57.5t-70.5 -25.5
q-50 0 -70.5 26.5t-20.5 54.5q0 13 7 40l69 284z" />
    <glyph glyph-name="a61" unicode="b" horiz-adv-x="1616" 
d="M808 1423q49 0 84.5 -35.5t35.5 -84.5q0 -50 -35.5 -85t-84.5 -35q-50 0 -85 35t-35 85q0 49 35 84.5t85 35.5zM479 1316q32 0 55 -22.5t23 -54.5t-22.5 -55t-55.5 -23q-32 0 -55 23t-23 55t23 54.5t55 22.5zM1137 1316q32 0 54.5 -22.5t22.5 -54.5t-22.5 -55t-54.5 -23
q-33 0 -55.5 23t-22.5 55t23 54.5t55 22.5zM1325 1117q32 0 54.5 -22.5t22.5 -55.5q0 -32 -22.5 -54.5t-54.5 -22.5q-33 0 -55.5 22.5t-22.5 54.5q0 33 23 55.5t55 22.5zM291 1117q33 0 55.5 -22.5t22.5 -55.5q0 -32 -22.5 -54.5t-55.5 -22.5q-32 0 -54.5 22.5t-22.5 54.5
q0 33 22.5 55.5t54.5 22.5zM808 999q124 0 212.5 -88.5t88.5 -212.5t-88.5 -212.5t-212.5 -88.5t-212.5 88.5t-88.5 212.5t88.5 212.5t212.5 88.5zM210 818q50 0 85.5 -35.5t35.5 -84.5q0 -50 -35.5 -85t-85.5 -35q-49 0 -84.5 35t-35.5 85q0 49 35.5 84.5t84.5 35.5z
M1405 818q50 0 85.5 -35.5t35.5 -84.5q0 -50 -35.5 -85t-85.5 -35q-49 0 -84.5 35t-35.5 85q0 49 35.5 84.5t84.5 35.5zM1325 434q32 0 54.5 -22.5t22.5 -54.5t-22.5 -55t-54.5 -23q-33 0 -55.5 22.5t-22.5 55.5q0 32 23 54.5t55 22.5zM291 434q33 0 55.5 -22.5t22.5 -54.5
t-22.5 -55t-55.5 -23q-32 0 -54.5 22.5t-22.5 55.5q0 32 22.5 54.5t54.5 22.5zM1137 235q32 0 54.5 -23t22.5 -55t-22.5 -55t-54.5 -23q-33 0 -55.5 23t-22.5 55q0 33 23 55.5t55 22.5zM479 235q32 0 55 -23t23 -55t-22.5 -55t-55.5 -23q-32 0 -55 23t-23 55q0 33 23 55.5
t55 22.5zM808 213q49 0 84.5 -35.5t35.5 -84.5q0 -50 -35.5 -85.5t-84.5 -35.5q-50 0 -85 35.5t-35 85.5q0 49 35 84.5t85 35.5z" />
    <glyph glyph-name="a62" unicode="c" horiz-adv-x="1448" 
d="M734 881l-177 320q-19 36 -19 79q0 75 56 134t140 59q80 0 138 -57.5t58 -142.5q0 -36 -20 -72zM734 974v451q-59 -7 -84 -23.5t-45 -49t-20 -73.5q0 -40 21 -77zM847 818l190 313q23 38 64.5 59.5t88.5 21.5q83 0 140 -58.5t57 -137.5q0 -75 -51.5 -132t-122.5 -59z
M928 864l391 226q-36 48 -67.5 61.5t-60.5 13.5q-84 0 -129 -76zM600 818l-366 7q-71 2 -122.5 60t-51.5 132q0 76 56.5 135.5t144.5 59.5q38 0 81.5 -20t68.5 -61zM520 864l-391 226q-10 -21 -15.5 -39.5t-5.5 -35.5q0 -56 41.5 -101.5t108.5 -45.5zM851 670l366 -8
q71 -1 122.5 -58t51.5 -132q0 -80 -56.5 -138.5t-143.5 -58.5q-38 0 -81.5 20t-68.5 61zM932 623l391 -226q11 23 16 42.5t5 34.5q0 54 -41.5 99.5t-108.5 46.5zM597 659l-190 -313q-49 -81 -154 -81q-83 0 -139.5 58.5t-56.5 135.5q0 78 52 134.5t121 57.5zM516 612
l-391 -225q30 -41 56.5 -58t69.5 -17q87 0 131 75zM734 592l176 -320q20 -36 20 -79q0 -75 -56.5 -134t-139.5 -59q-81 0 -139 57.5t-58 142.5q0 36 20 72zM734 499v-451q58 7 83 23.5t45 49t20 73.5q0 40 -20 77z" />
    <glyph glyph-name="a63" unicode="d" horiz-adv-x="1407" 
d="M773 801l223 128l36 274l66 -8l-28 -223l230 133l41 -71l-231 -133l208 -87l-26 -61l-255 106l-223 -129v-33l223 -129l255 107l26 -62l-207 -87l231 -133l-41 -71l-231 133l28 -223l-66 -8l-36 274l-223 128l-28 -17v-257l219 -168l-40 -53l-179 135v-266h-82v266
l-179 -135l-41 53l220 168v257l-29 17l-223 -129l-35 -274l-66 9l28 223l-231 -134l-41 71l231 134l-207 87l26 61l255 -106l222 129l1 33l-223 128l-255 -106l-26 62l207 87l-231 133l41 71l231 -133l-28 223l66 8l36 -274l223 -129l28 17v256l-220 168l41 53l179 -135v266
h81v-266l180 135l40 -53l-220 -168v-256z" />
    <glyph glyph-name="a64" unicode="e" horiz-adv-x="1425" 
d="M646 1425h134v-202l178 102v-134l-178 -101v-261l233 132l-8 194l116 68l8 -194l169 99l65 -114l-175 -100l178 -105l-119 -70l-178 105l-224 -131l224 -132l178 105l119 -70l-178 -105l175 -100l-65 -114l-169 99l-8 -194l-116 68l8 194l-233 132v-261l178 -101v-134
l-178 102v-202h-134v202l-179 -102v134l179 101v261l-233 -132l8 -194l-116 -68l-8 194l-169 -99l-65 114l175 100l-178 105l119 70l178 -105l223 132l-223 131l-178 -105l-119 70l178 105l-175 100l65 114l169 -99l8 194l116 -68l-8 -194l233 -132v261l-179 101v134
l179 -102v202z" />
    <glyph glyph-name="a65" unicode="f" horiz-adv-x="1411" 
d="M854 891l45 44l-10 164l33 2l18 -128l58 57l-11 133l28 5l21 -101l43 40l-4 112l22 3l16 -82l69 65l21 -21l-65 -68l81 -17l-2 -21l-112 3l-41 -42l101 -22l-4 -28l-133 11l-57 -58l128 -18l-2 -33l-165 11l-48 -50l163 -8l-99 -116l69 -1l109 124l25 -22l-78 -103l82 -2
l86 103l23 -17l-56 -87l58 -1l77 81l17 -13l-46 -69l94 -3v-30l-94 -2l46 -69l-17 -14l-77 82l-58 -1l56 -87l-23 -17l-86 102l-82 -1l78 -103l-25 -22l-109 124l-69 -1l99 -116l-162 -7l49 -51l165 10l2 -33l-128 -18l56 -58l134 11l4 -28l-101 -22l41 -42l112 3l2 -21
l-81 -16l64 -69l-21 -21l-68 65l-16 -82l-22 3l3 112l-42 40l-22 -101l-28 5l12 133l-59 57l-18 -128l-33 2l11 164l-47 46l-8 -156l-116 99l-2 -69l125 -109l-23 -25l-103 78l-1 -81l102 -86l-16 -24l-87 57l-1 -59l81 -77l-13 -17l-69 46l-3 -94h-30l-2 94l-70 -46l-13 17
l82 77l-2 59l-86 -57l-17 24l102 86l-1 81l-103 -78l-22 25l124 109l-2 69l-115 -99l-9 156l-46 -45l10 -165l-33 -2l-18 128l-58 -57l11 -133l-28 -4l-22 101l-42 -41l3 -112l-21 -2l-17 81l-68 -65l-21 22l65 68l-82 16l3 22l112 -4l40 43l-101 21l5 29l133 -12l57 58
l-128 18l2 34l164 -11l49 51l-162 7l99 116l-69 1l-109 -124l-25 22l78 103l-81 1l-86 -102l-24 17l57 86l-59 2l-77 -82l-17 14l46 69l-94 2v30l94 3l-46 69l17 13l77 -81l59 1l-57 87l24 17l86 -103l81 1l-78 104l25 22l109 -124l69 1l-99 116l164 7l-49 50l-164 -11
l-2 34l127 17l-56 59l-133 -12l-5 29l101 21l-40 42l-112 -3l-3 22l82 16l-65 68l21 22l68 -65l17 81l21 -2l-3 -112l42 -41l22 101l28 -4l-11 -133l58 -57l18 128l33 -2l-11 -165l45 -43l9 154l115 -99l2 70l-124 108l22 25l103 -77l1 81l-102 86l17 23l86 -56l2 58l-82 77
l14 17l69 -46l2 94h30l3 -94l69 46l13 -17l-81 -77l1 -58l87 56l17 -23l-103 -86l1 -81l104 77l22 -25l-125 -108l2 -70l116 99zM539 703l-99 -111l146 -7l8 -146l111 98l112 -98l7 146l146 7l-98 111l98 112l-146 7l-7 146l-112 -98l-111 98l-8 -146l-146 -7zM705 833
l35 -86l100 -1l-81 -66l28 -97l-82 54l-82 -54l29 97l-82 66l100 1z" />
    <glyph glyph-name="a66" unicode="g" horiz-adv-x="1610" 
d="M636 851l-533 488q-41 37 -41 75q0 27 17.5 43t39.5 16t36.5 -7t38.5 -34l486 -537l33 18q-11 43 -43 129q-55 144 -55 188q0 19 9 30.5t21 11.5q22 0 39.5 -27.5t39.5 -114.5q18 -69 36 -107q6 34 6 65q0 44 -10 111q-12 80 -12 109q0 85 61 85q60 0 60 -85
q0 -28 -12 -109q-10 -67 -10 -112q0 -30 6 -64q18 38 36 107q23 87 40 114.5t39 27.5q11 0 20.5 -11.5t9.5 -30.5q0 -44 -55 -188q-32 -85 -43 -129l33 -18l486 537q20 22 34.5 31.5t38.5 9.5q27 0 43 -17t16 -39q0 -41 -41 -78l-533 -488l15 -23q44 11 128 44
q145 55 188 55q19 0 31 -9.5t12 -20.5q0 -23 -27.5 -40.5t-114.5 -39.5q-66 -17 -107 -35q33 -7 64 -7q44 0 112 10q81 12 108 12q86 0 86 -60t-85 -60q-28 0 -109 11q-68 11 -113 11q-31 0 -63 -7q40 -19 107 -36q86 -22 114 -39t28 -40q0 -12 -12 -21t-31 -9
q-44 0 -188 55q-84 32 -128 43l-15 -23l533 -488q44 -39 44 -80q0 -24 -17.5 -39t-41.5 -15q-19 0 -34 5.5t-42 35.5l-486 538l-33 -19q11 -43 43 -128q55 -144 55 -189q0 -42 -40 -42q-29 0 -44.5 31t-30.5 87q-22 88 -39 128q-7 -49 -7 -69q0 -36 12 -109q11 -63 11 -111
q0 -79 -60 -79q-62 0 -62 77q0 45 11 109q12 72 12 107q0 23 -8 75q-19 -46 -40 -135q-27 -113 -72 -113q-32 0 -32 44q0 21 15.5 66t37.5 107q38 102 47 144l-25 13l-453 -501q-66 -72 -106 -72q-22 0 -41 15t-19 43q0 24 7 37t34 38l533 489l-14 22q-260 -98 -309 -98
q-51 0 -51 28q0 14 20 34.5t99 40.5q43 11 127 41q-34 3 -50 3q-21 0 -171 -14q-56 -6 -67 -6q-78 0 -78 62q0 28 22 45.5t45 17.5q14 0 134 -16q67 -10 104 -10q36 0 64 7q-45 20 -134 44q-112 29 -112 73q0 30 43 30q31 0 145 -45q82 -33 169 -53zM805 856q-50 0 -86 -36
t-36 -86t36 -85.5t86 -35.5t85.5 35.5t35.5 85.5t-35.5 86t-85.5 36z" />
    <glyph glyph-name="a67" unicode="h" horiz-adv-x="1612" 
d="M179 1425q38 0 64 -26.5t26 -65.5q0 -38 -25 -63.5t-64 -25.5q-38 0 -63.5 25t-25.5 64t25.5 65.5t62.5 26.5zM1525 1332q0 -38 -26 -64t-64 -26q-39 0 -64.5 25.5t-25.5 64.5q0 37 25 63t64 26t65 -25.5t26 -63.5zM797 798l-52 114q-59 128 -71.5 163.5t-12.5 72.5
q0 70 42.5 105t101.5 35t101.5 -35t42.5 -104q0 -37 -12.5 -73t-71.5 -164l-52 -114h-16zM354 1235q33 0 55.5 -22t22.5 -54t-22.5 -54.5t-54.5 -22.5t-54.5 21.5t-22.5 53.5t22 55t54 23zM1336 1158q0 -34 -22 -56t-54 -22t-54.5 22t-22.5 55q0 31 21.5 53.5t53.5 22.5
t55 -22t23 -53zM731 760l-171 133q-58 45 -83 71.5t-25 48.5q0 20 16 35t35 15q21 0 41.5 -19t70.5 -85l135 -181zM861 781l133 171q46 58 72 83t48 25q19 0 34 -16t15 -35q0 -20 -18 -40.5t-85 -71.5l-181 -135zM898 713l114 53q128 58 163.5 70.5t72.5 12.5
q70 0 105 -42.5t35 -101.5t-35 -101.5t-104 -42.5q-37 0 -73 12.5t-164 71.5l-114 52v16zM713 697l-115 -52q-128 -59 -163 -71.5t-73 -12.5q-70 0 -104.5 43t-34.5 101q0 59 34.5 101.5t104.5 42.5q36 0 72 -12.5t164 -70.5l115 -53v-16zM880 651l171 -134q59 -46 83.5 -72
t24.5 -47q0 -20 -16 -35t-35 -15q-21 0 -42 19t-70 84l-135 181zM752 625l-134 -171q-45 -59 -71.5 -83.5t-48.5 -24.5q-18 0 -33.5 15.5t-15.5 34.5q0 23 21.5 45t82.5 68l180 135zM813 613l52 -115q59 -128 71.5 -163t12.5 -73q0 -70 -42.5 -104.5t-101.5 -34.5t-101.5 35
t-42.5 104q0 36 12.5 72.5t71.5 163.5l52 115h16zM1257 176q-34 0 -56 22t-22 54t22 54t54 22t54.5 -21t22.5 -54q0 -32 -21.5 -54.5t-53.5 -22.5zM277 248q0 34 22 56t54 22t54 -22.5t22 -54.5t-21.5 -54.5t-52.5 -22.5q-32 0 -55 22t-23 54zM1432 -14q-38 0 -64.5 26
t-26.5 65q0 38 25.5 64t63.5 26q39 0 64.5 -25.5t25.5 -63.5q0 -40 -26 -66t-62 -26zM87 73q0 38 26.5 64t64.5 26t64 -25.5t26 -63.5t-25.5 -63.5t-63.5 -25.5q-39 0 -65.5 25.5t-26.5 62.5z" />
    <glyph glyph-name="a68" unicode="i" horiz-adv-x="1460" 
d="M666 789v381q0 49 -12 64t-42 16q-67 5 -67 40q0 19 17.5 31.5t42.5 12.5q20 0 43 -13q48 36 84 36q39 0 81 -36q25 10 42 10q25 0 42 -11.5t17 -29.5q0 -38 -59 -39q-36 -1 -49 -14.5t-13 -59.5v-389q68 71 161 199t154 275q19 -39 19 -92q0 -33 -6 -68q40 6 68 6
q53 0 93 -20q-131 -52 -238 -126.5t-234 -190.5h373q55 0 69.5 12t16.5 44q5 66 39 66q18 0 30.5 -17.5t12.5 -40.5q0 -16 -11 -47q33 -38 33 -82q0 -42 -36 -79q12 -26 12 -44q0 -26 -12.5 -43t-32.5 -17q-15 0 -23.5 8t-12.5 46q-5 42 -16.5 55.5t-50.5 13.5h-391
q162 -146 267 -215.5t205 -107.5q-45 -19 -97 -19q-15 0 -65 6q6 -36 6 -62q0 -56 -22 -104q-95 248 -311 485v-390q0 -43 13.5 -55.5t46.5 -15.5q39 -2 50.5 -11.5t11.5 -26.5q0 -21 -17.5 -33t-39.5 -12q-19 0 -45 12q-38 -36 -83 -36q-41 0 -80 34q-21 -10 -43 -10
q-28 0 -45.5 13.5t-17.5 32.5q0 37 70 40q33 1 42.5 11.5t9.5 60.5v386q-238 -259 -315 -475q-20 38 -20 90q0 30 6 69q-54 -5 -79 -5q-45 0 -88 21q137 59 245.5 131.5t232.5 185.5h-373q-50 0 -66.5 -13t-17.5 -47q-2 -64 -39 -64q-42 0 -42 58q0 19 12 44q-35 43 -35 85
q0 40 35 77q-12 25 -12 44q0 26 12.5 43t30.5 17q38 0 39 -58q1 -38 13 -49.5t61 -11.5h383q-161 140 -264 206.5t-210 108.5q45 19 99 19q24 0 63 -5q-7 41 -7 72q0 51 20 94q92 -241 316 -477z" />
    <glyph glyph-name="a69" unicode="j" horiz-adv-x="1620" 
d="M715 1470q30 -74 101 -148t184 -117v-17q-117 -65 -161 -150t-44 -177q0 -18 1 -40h-16q-118 200 -118 421q0 48 7 102.5t21 115.5zM716 1377q-7 -37 -10.5 -70t-3.5 -62q0 -154 62 -306q38 165 166 255q-64 32 -108 69t-106 114zM1388 1199l13 -14q-60 -98 -77 -168
t-17 -133q0 -35 4 -92l-16 -5q-52 33 -104 49t-104 16q-100 0 -209 -65l-9 8q73 143 209 252.5t310 151.5zM1323 1139q-118 -45 -211 -116t-147 -150q65 17 126 17q41 0 83.5 -9.5t87.5 -29.5q2 104 13 159.5t48 128.5zM503 1142l14 -6q0 -88 21.5 -155.5t70 -120
t124.5 -92.5l-6 -16q-166 0 -305 50t-299 198l10 24q117 -1 197 23.5t173 94.5zM474 1072q-124 -76 -273 -89l85 -58q77 -52 132 -72.5t90.5 -32.5t103.5 -19q-67 72 -96.5 129t-41.5 142zM891 719q174 1 335.5 -65t270.5 -177l-10 -23l-51 3q-156 0 -315 -115l-13 8
q-3 129 -55.5 210.5t-168.5 142.5zM1010 670q118 -107 134 -265q113 78 273 90q-164 139 -407 175zM741 687l13 -13q-177 -308 -519 -401l-12 13q60 99 76.5 164t16.5 123q0 30 -7 99l19 7q49 -30 98 -45t98 -15q112 0 217 68zM658 602q-88 -22 -150 -22q-33 0 -70.5 9
t-79.5 26q-2 -47 -1.5 -74t-11 -79.5t-44.5 -124.5q108 37 207.5 114t149.5 151zM808 657h21q65 -105 97 -217t32 -232q0 -91 -28 -204l-20 -4q-103 197 -288 270l2 17q105 63 146 153.5t41 162.5q0 18 -3 54zM848 540q-15 -77 -49 -136t-108 -119q131 -71 215 -194
q9 73 9 134q0 82 -16.5 160.5t-50.5 154.5z" />
    <glyph glyph-name="a70" unicode="k" horiz-adv-x="1608" 
d="M804 817l-152 398l142 241h19l144 -245zM723 786l-389 174l-70 271l14 13l274 -71zM882 783l173 389l271 70l13 -14l-71 -274zM915 706l398 152l241 -142v-19l-244 -144zM692 706l-398 -153l-241 143v18l244 144zM724 631l-174 -389l-271 -69l-13 13l71 274zM883 630
l390 -173l69 -272l-13 -13l-275 71zM805 596l152 -398l-142 -240h-19l-144 244z" />
    <glyph glyph-name="a71" unicode="l" horiz-adv-x="1620" 
d="M1570 729q0 -313 -223.5 -536t-536.5 -223t-536 223t-223 536t223 536.5t536 223.5t536.5 -223.5t223.5 -536.5z" />
    <glyph glyph-name="a72" unicode="m" horiz-adv-x="1788" 
d="M782 1307h223q305 0 502 -206.5t197 -471.5q0 -177 -89.5 -347.5t-260 -260t-349.5 -89.5h-223q-302 0 -500.5 206t-198.5 472q0 179 90.5 350.5t261.5 259t347 87.5zM1409 620q0 263 -187.5 451t-451.5 188q-263 0 -451 -188t-188 -451q0 -264 188 -451.5t451 -187.5
q264 0 451.5 187.5t187.5 451.5z" />
    <glyph glyph-name="a73" unicode="n" horiz-adv-x="1559" 
d="M1511 0h-1463v1463h1463v-1463z" />
    <glyph glyph-name="a74" unicode="o" horiz-adv-x="1560" 
d="M1292 1463v-219h221v-1244h-1237v206h-228v1257h1244zM1211 1382h-1082v-1095h1082v1095z" />
    <glyph glyph-name="a203" unicode="p" horiz-adv-x="1560" 
d="M1292 0h-1244v1248h228v215h1237v-1243h-221v-220zM1211 81v1086h-1082v-1086h1082z" />
    <glyph glyph-name="a75" unicode="q" horiz-adv-x="1554" 
d="M1228 1463l278 -252v-1211h-1160l-299 272v1191h1181zM1228 1382h-1100v-1110h1100v1110z" />
    <glyph glyph-name="a204" unicode="r" horiz-adv-x="1554" 
d="M1228 0h-1181v1191l299 272h1160v-1210zM1228 81v1110h-1100v-1110h1100z" />
    <glyph glyph-name="a76" unicode="s" horiz-adv-x="1827" 
d="M1772 0h-1718l859 1474z" />
    <glyph glyph-name="a77" unicode="t" horiz-adv-x="1827" 
d="M54 1450h1718l-859 -1474z" />
    <glyph glyph-name="a78" unicode="u" 
d="M807 -24l-730 730l730 729l730 -729z" />
    <glyph glyph-name="a79" unicode="v" horiz-adv-x="1606" 
d="M803 1435l286 -286l-286 -285l-286 285zM359 991l286 -285l-286 -286l-286 286zM1247 991l286 -285l-286 -286l-286 286zM803 547l286 -285l-286 -286l-286 286z" />
    <glyph glyph-name="a81" unicode="w" horiz-adv-x="897" 
d="M59 1489q327 1 553 -226t226 -534q0 -281 -205 -516.5t-574 -242.5v1519z" />
    <glyph glyph-name="a82" unicode="x" horiz-adv-x="283" 
d="M223 1459v-1459h-164v1459h164z" />
    <glyph glyph-name="a83" unicode="y" horiz-adv-x="567" 
d="M508 1459v-1459h-449v1459h449z" />
    <glyph glyph-name="a84" unicode="z" horiz-adv-x="850" 
d="M791 1459v-1459h-732v1459h732z" />
    <glyph glyph-name="a97" unicode="{" horiz-adv-x="803" 
d="M596 1407q-153 -44 -263.5 -136.5t-165.5 -268.5q28 46 55 72t77.5 47.5t105.5 21.5q118 0 200.5 -86.5t82.5 -219.5q0 -123 -80.5 -209t-209.5 -86q-135 0 -209.5 92t-74.5 255q0 424 476 557z" />
    <glyph glyph-name="a98" unicode="|" horiz-adv-x="803" 
d="M206 582q154 44 264.5 136t164.5 268q-27 -46 -54.5 -72t-78 -47.5t-104.5 -21.5q-118 0 -201 86.5t-83 220.5q0 123 80.5 208.5t209.5 85.5q136 0 210 -92t74 -254q0 -425 -476 -558z" />
    <glyph glyph-name="a99" unicode="}" horiz-adv-x="1368" 
d="M559 1407q-153 -44 -263.5 -136.5t-165.5 -268.5q28 46 55 72t77.5 47.5t105.5 21.5q118 0 200.5 -86.5t82.5 -219.5q0 -123 -80.5 -209t-209.5 -86q-135 0 -209.5 92t-74.5 255q0 424 476 557zM1199 1407q-153 -44 -263.5 -136.5t-165.5 -268.5q28 46 55 72t77.5 47.5
t105.5 21.5q118 0 200.5 -86.5t82.5 -219.5q0 -123 -80.5 -209t-209.5 -86q-135 0 -209.5 92t-74.5 255q0 424 476 557z" />
    <glyph glyph-name="a100" unicode="~" horiz-adv-x="1368" 
d="M808 582q154 44 264.5 136t164.5 268q-27 -46 -54.5 -72t-78 -47.5t-104.5 -21.5q-118 0 -201 86.5t-83 220.5q0 123 80.5 208.5t209.5 85.5q136 0 210.5 -92t74.5 -254q0 -425 -477 -558zM169 582q154 44 264.5 136t164.5 268q-27 -46 -54.5 -72t-78 -47.5t-104.5 -21.5
q-118 0 -201 86.5t-83 220.5q0 123 80.5 208.5t209.5 85.5q136 0 210 -92t74 -254q0 -425 -476 -558z" />
    <glyph glyph-name="a89" unicode="&#xc4;" horiz-adv-x="799" 
d="M724 1487l16 -44q-198 -82 -306.5 -269.5t-108.5 -444.5q0 -256 108.5 -443.5t306.5 -270.5l-16 -43q-316 68 -478.5 278.5t-162.5 478.5q0 269 162.5 479t478.5 279z" />
    <glyph glyph-name="a90" unicode="&#xc5;" horiz-adv-x="799" 
d="M75 -28l-16 43q198 83 306.5 270.5t108.5 443.5q0 257 -108.5 444.5t-306.5 269.5l16 44q316 -69 478.5 -279t162.5 -479q0 -268 -162 -478.5t-479 -278.5z" />
    <glyph glyph-name="a93" unicode="&#xc7;" horiz-adv-x="649" 
d="M321 1459h246q-173 -377 -173 -730q0 -352 173 -729h-246q-275 352 -275 729q0 378 275 730z" />
    <glyph glyph-name="a94" unicode="&#xc9;" horiz-adv-x="649" 
d="M329 0h-246q172 377 172 729q0 353 -172 730h246q275 -352 275 -730q0 -377 -275 -729z" />
    <glyph glyph-name="a91" unicode="&#xd1;" horiz-adv-x="565" 
d="M256 1459h238l-206 -731l206 -728h-242l-206 728z" />
    <glyph glyph-name="a92" unicode="&#xd6;" horiz-adv-x="565" 
d="M309 0h-239l206 730l-206 729h242l206 -729z" />
    <glyph glyph-name="a205" unicode="&#xdc;" horiz-adv-x="1042" 
d="M549 1459h449l-529 -731l529 -728h-449l-528 728z" />
    <glyph glyph-name="a85" unicode="&#xe1;" horiz-adv-x="1042" 
d="M493 0h-448l528 731l-528 728h448l529 -728z" />
    <glyph glyph-name="a206" unicode="&#xe0;" horiz-adv-x="840" 
d="M253 0l-206 728l206 731h515l-206 -731l206 -728h-515z" />
    <glyph glyph-name="a86" unicode="&#xe2;" horiz-adv-x="840" 
d="M586 1459l206 -729l-206 -730h-515l207 730l-207 729h515z" />
    <glyph glyph-name="a87" unicode="&#xe4;" horiz-adv-x="479" 
d="M408 1382l-178 -120v-1115l178 -120l-45 -55l-292 175v1115l292 175z" />
    <glyph glyph-name="a88" unicode="&#xe3;" horiz-adv-x="479" 
d="M71 1382l45 55l292 -175v-1115l-292 -175l-45 55l178 120v1115z" />
    <glyph glyph-name="a95" unicode="&#xe5;" horiz-adv-x="684" 
d="M585 1419v-36q-154 -34 -154 -150q0 -43 23 -145q15 -69 15 -123q0 -62 -37.5 -116.5t-98 -83t-170.5 -55.5q105 -27 168.5 -55.5t100.5 -83.5t37 -117q0 -54 -15 -122q-23 -103 -23 -143q0 -117 154 -153v-36q-174 7 -274 75.5t-100 165.5q0 43 21 133q21 95 21 143
q0 47 -28.5 98t-125.5 71v48q97 19 125.5 70t28.5 99q0 47 -21 142q-21 90 -21 129q0 103 101.5 170.5t272.5 74.5z" />
    <glyph glyph-name="a96" unicode="&#xe7;" horiz-adv-x="684" 
d="M99 1419q175 -7 274.5 -75.5t99.5 -165.5q0 -42 -21 -133q-22 -95 -22 -143q0 -47 29 -98t126 -70v-48q-98 -20 -126.5 -71t-28.5 -98q0 -48 22 -143q21 -90 21 -129q0 -103 -102 -170.5t-272 -74.5v36q154 36 154 150q0 43 -23 146q-15 68 -15 122q0 62 37.5 117t98 83
t170.5 56q-105 26 -168.5 54.5t-100.5 84t-37 117.5q0 53 15 122q23 102 23 143q0 118 -154 152v36z" />
    <glyph glyph-name="a101" unicode="&#xb0;" horiz-adv-x="1499" 
d="M1363 1489v-54h-260v-1128q0 -348 -120 -488t-327 -140q-123 0 -195 50t-72 122q0 45 29 76.5t72 31.5q46 0 77.5 -31.5t31.5 -67.5l-3 -59q0 -27 30 -50q29 -23 70 -23q96 0 169.5 77t73.5 295v265h-135q-160 0 -310 62t-232.5 197t-82.5 313q0 134 53.5 256.5
t198.5 209t361 86.5h571z" />
    <glyph glyph-name="a102" unicode="&#xa2;" horiz-adv-x="1114" 
d="M531 585q-6 60 -21 95.5t-64 97t-119 126.5q-65 60 -117 122.5t-70 103.5t-18 89q0 113 112 180.5t323 67.5q216 0 325 -69.5t109 -171.5q0 -46 -14 -86t-66 -104t-125 -132q-66 -61 -114.5 -121.5t-65.5 -97t-23 -100.5h-52zM556 -28q-133 0 -226.5 76.5t-93.5 181.5
q0 102 86.5 176.5t233.5 74.5q148 0 234.5 -74.5t86.5 -176.5q0 -105 -93.5 -181.5t-227.5 -76.5z" />
    <glyph glyph-name="a103" unicode="&#xa3;" horiz-adv-x="1114" 
d="M557 1383q65 42 108.5 57.5t100.5 15.5q124 0 207.5 -69t83.5 -166q0 -64 -41.5 -123t-131.5 -136q-98 -84 -171 -156t-96 -114.5t-30 -106.5h-60q-8 64 -30 105.5t-93.5 113t-173.5 158.5q-89 76 -131 135.5t-42 119.5q0 102 84 170.5t207 68.5q55 0 99 -15t110 -58z
M557 -28q-134 0 -227.5 76.5t-93.5 181.5q0 102 86.5 176.5t234.5 74.5t234 -74.5t86 -176.5q0 -105 -93.5 -181.5t-226.5 -76.5z" />
    <glyph glyph-name="a104" unicode="&#xa7;" horiz-adv-x="1864" 
d="M932 1133q36 97 84 161t133 104.5t199 40.5q188 0 315.5 -93.5t127.5 -229.5q0 -122 -62.5 -222.5t-211.5 -238.5q-199 -185 -263 -253.5t-144 -180.5t-104 -160q-22 -42 -38 -51.5t-37 -9.5q-22 0 -37.5 11t-35.5 50q-25 48 -104.5 159.5t-144.5 181t-263 253.5
q-142 132 -208 233t-66 220q0 147 129.5 239t313.5 92q114 0 198.5 -40t133 -103.5t85.5 -162.5z" />
    <glyph glyph-name="a106" unicode="&#x2022;" horiz-adv-x="1366" 
d="M341 782q-84 33 -139.5 77.5t-90 121.5t-34.5 180q0 161 77 282.5t222 121.5q59 0 111.5 -19t110.5 -64t90 -81.5t117 -151.5q98 -131 151.5 -189t137.5 -120.5t163 -102.5q38 -18 50 -28.5t12 -25.5q0 -25 -62 -56q-77 -38 -161 -100.5t-138 -120.5t-153 -191
q-84 -113 -116.5 -150.5t-91.5 -82.5t-110.5 -63.5t-110.5 -18.5q-146 0 -222.5 121.5t-76.5 281.5q0 103 34 180t89.5 121.5t140.5 77.5z" />
    <glyph glyph-name="a107" unicode="&#xb6;" horiz-adv-x="1556" 
d="M976 1056q-19 -47 -61 -120q-41 -73 -52 -127q86 76 203 76q103 0 168 -52t65 -136q0 -113 -89 -205t-345 -157q-130 -33 -176 -50.5t-69 -43.5t-23 -58q0 -53 54 -89t126 -36q33 0 58.5 9t80.5 43q63 39 113 39q34 0 55 -15.5t21 -40.5q0 -58 -75.5 -90.5t-198.5 -32.5
q-262 0 -454.5 173.5t-192.5 431.5q0 181 108 308t259 127q58 0 102 -16.5t71 -44t34.5 -48.5t7.5 -60q16 54 54 124q32 59 53 106q-72 20 -128.5 49t-125.5 90q-81 71 -113.5 90t-77.5 19q-35 0 -63.5 -12t-38 -27.5t-12.5 -45.5q-4 -34 -29 -48.5t-53 -14.5
q-36 0 -56 15.5t-20 33.5q0 72 136 143.5t331 71.5q170 0 279 -74.5t109 -178.5q0 -22 -8 -60q25 -3 38 -3q60 0 110.5 32t50.5 77q0 19 -7 52q-10 43 -10 77q0 95 105 95q44 0 74.5 -20t30.5 -41q0 -26 -42 -49q-29 -15 -38 -33t-10 -68q-1 -43 -9.5 -67t-41 -53t-86 -48.5
t-123.5 -19.5q-25 0 -69 3zM903 1137q9 42 9 62q0 64 -87.5 117t-189.5 53q-36 0 -94 -14q46 -13 66.5 -25.5t67.5 -55.5q75 -69 121.5 -94.5t106.5 -42.5z" />
    <glyph glyph-name="a108" unicode="&#xdf;" horiz-adv-x="1556" 
d="M497 757q0 88 -21.5 120t-44.5 32q-20 0 -42 -27q-31 -38 -59.5 -55t-70.5 -17q-63 0 -110 40.5t-47 102.5q0 42 26 71t58 29q18 0 33 -10.5t15 -28.5q0 -22 -32 -36q-18 -9 -18 -22q0 -11 7.5 -16.5t21.5 -5.5q23 0 54 32q55 58 123 58q60 0 107.5 -39.5t63.5 -93.5
t16 -139q84 -5 152 -25q-40 44 -49.5 67.5t-9.5 46.5q0 61 55 111.5t139 50.5q52 0 96.5 -18.5t73.5 -48t86 -94.5q121 -138 228 -138q64 0 100 46t36 97q0 47 -56 62q-69 20 -69 66q0 29 21.5 51.5t57.5 22.5q56 0 87 -48t31 -116q0 -189 -187.5 -358t-441.5 -169
q-143 0 -219.5 49t-76.5 132q0 38 20.5 73t87.5 63q-66 26 -171 32q-26 -78 -90.5 -134.5t-212.5 -78.5q-38 -6 -46.5 -25.5t-8.5 -47.5q0 -67 27.5 -97.5t67.5 -30.5q73 0 89 81q7 37 43 37q31 0 31 -28q0 -49 -52.5 -103t-131.5 -54q-39 0 -81 20.5t-81 111.5
q-56 -36 -80 -36q-16 0 -28.5 7t-12.5 18q0 9 45 45q24 19 33.5 30t29.5 45q25 45 46.5 62.5t61.5 34.5q-16 26 -16 44q0 65 75 107t185 42h36zM485 712q-81 1 -145 -32t-64 -76q0 -32 41 -32q95 0 168 140z" />
    <glyph glyph-name="a112" unicode="&#xae;" horiz-adv-x="1589" 
d="M530 957q-35 58 -50.5 99.5t-15.5 90.5q0 125 97.5 211t232.5 86q136 0 233.5 -86t97.5 -211q0 -49 -15 -90.5t-52 -99.5q81 23 133 23q129 0 227.5 -87t98.5 -232q0 -141 -96 -231.5t-223 -90.5q-74 0 -151.5 40.5t-160.5 153.5q19 -183 31.5 -238t39 -134.5
t76.5 -160.5h-477q50 81 77 162.5t39 135t31 235.5q-84 -114 -162 -154t-151 -40q-126 0 -222 90.5t-96 231.5q0 145 98.5 232t228.5 87q52 0 131 -23z" />
    <glyph glyph-name="a111" unicode="&#xa9;" horiz-adv-x="1218" 
d="M609 1443l585 -721l-585 -722l-585 722z" />
    <glyph glyph-name="a110" unicode="&#x2122;" horiz-adv-x="1421" 
d="M710 1138q50 175 131 240.5t184 65.5q141 0 238.5 -93t97.5 -231q0 -118 -45 -216.5t-163 -243.5q-150 -186 -196 -249t-106 -172.5t-85 -172.5q-13 -34 -22.5 -45.5t-27.5 -20.5h-12q-18 9 -27.5 21t-22.5 45q-24 61 -84 170.5t-105.5 172.5t-197.5 251
q-107 132 -157 232t-50 217q0 152 98.5 243.5t237.5 91.5q104 0 184.5 -66t129.5 -240z" />
    <glyph glyph-name="a109" unicode="&#xb4;" horiz-adv-x="1282" 
d="M620 1443h42q19 -11 27 -23.5t26 -47.5q27 -51 68.5 -101.5t135.5 -135.5q139 -124 212.5 -201t111 -159t37.5 -155q0 -71 -34.5 -142t-101.5 -105t-131 -34q-53 0 -107.5 23t-88.5 56t-85 101q15 -196 55 -313t95 -206h-482q55 89 95 206t55 313q-50 -66 -84 -99.5
t-89 -57t-108 -23.5q-63 0 -130.5 33.5t-102 105t-34.5 142.5q0 75 37 153.5t98 146t226 215.5q94 84 135.5 135t68.5 102q18 35 26 47.5t27 23.5z" />
    <glyph glyph-name="a120" unicode="&#xa8;" 
d="M807 1444q303 0 519.5 -216.5t216.5 -519.5t-216.5 -519.5t-519.5 -216.5t-519.5 216t-216.5 520q0 303 216.5 519.5t519.5 216.5zM807 1373q-274 0 -469.5 -195.5t-195.5 -469.5t195.5 -470t469.5 -196t469.5 196t195.5 470t-195.5 469.5t-469.5 195.5zM559 1096
q101 10 160 27.5t125 59.5h39v-820q0 -52 13 -64t45 -12h123v-61h-484v61h116q33 0 45.5 12.5t12.5 63.5v603q0 47 -15 58.5t-46 11.5h-134v60z" />
    <glyph glyph-name="a121" unicode="&#x2260;" 
d="M807 1444q303 0 519.5 -216.5t216.5 -519.5t-216.5 -519.5t-519.5 -216.5t-519.5 216t-216.5 520q0 303 216.5 519.5t519.5 216.5zM807 1373q-274 0 -469.5 -195.5t-195.5 -469.5t195.5 -470t469.5 -196t469.5 196t195.5 470t-195.5 469.5t-469.5 195.5zM1101 516
l-23 -290h-580v59q47 63 89 109l96 107l127 144q59 66 94 144t35 146q0 80 -41.5 132t-121.5 52q-61 0 -101 -29.5t-40 -66.5q0 -23 20 -47q35 -45 35 -86q0 -35 -24 -59t-55 -24q-35 0 -63 31.5t-28 94.5q0 112 83 181t198 69q120 0 200.5 -69.5t80.5 -178.5
q0 -65 -25.5 -128t-63 -105t-121.5 -116l-143 -127q-57 -51 -111 -114h273q60 0 80.5 8t39 41.5t29.5 121.5h61z" />
    <glyph glyph-name="a122" unicode="&#xc6;" 
d="M807 1444q303 0 519.5 -216.5t216.5 -519.5t-216.5 -519.5t-519.5 -216.5t-519.5 216t-216.5 520q0 303 216.5 519.5t519.5 216.5zM807 1373q-274 0 -469.5 -195.5t-195.5 -469.5t195.5 -470t469.5 -196t469.5 196t195.5 470t-195.5 469.5t-469.5 195.5zM897 725
q210 -66 210 -251q0 -124 -93.5 -198t-223.5 -74q-134 0 -210 65.5t-76 157.5q0 48 22.5 81.5t63.5 33.5q31 0 52 -22.5t21 -49.5q0 -30 -25 -71q-19 -31 -19 -47q0 -33 48 -61t115 -28q183 0 183 212q0 219 -172 219q-26 0 -55 -6q-22 -4 -34 -4q-36 0 -36 34q0 39 38 39
q12 0 33 -4q24 -5 44 -5q54 0 85 19.5t50.5 60.5t19.5 110q0 94 -41.5 140.5t-114.5 46.5q-61 0 -96 -25.5t-35 -56.5q0 -12 14 -35q20 -32 20 -58q0 -33 -20 -53t-48 -20q-34 0 -58 29t-24 71q0 82 74.5 145t188.5 63q122 0 198.5 -69.5t76.5 -165.5q0 -145 -176 -223z" />
    <glyph glyph-name="a123" unicode="&#xd8;" 
d="M807 1444q303 0 519.5 -216.5t216.5 -519.5t-216.5 -519.5t-519.5 -216.5t-519.5 216t-216.5 520q0 303 216.5 519.5t519.5 216.5zM807 1373q-274 0 -469.5 -195.5t-195.5 -469.5t195.5 -470t469.5 -196t469.5 196t195.5 470t-195.5 469.5t-469.5 195.5zM1062 553v-73
h-123v-117q0 -51 13 -63t45 -12h65v-62h-404v62h107q33 0 45.5 12t12.5 63v117h-370v102l392 601h94v-630h123zM508 553h315v483z" />
    <glyph glyph-name="a124" unicode="&#x221e;" 
d="M807 1444q303 0 519.5 -216.5t216.5 -519.5t-216.5 -519.5t-519.5 -216.5t-519.5 216t-216.5 520q0 303 216.5 519.5t519.5 216.5zM807 1373q-274 0 -469.5 -195.5t-195.5 -469.5t195.5 -470t469.5 -196t469.5 196t195.5 470t-195.5 469.5t-469.5 195.5zM610 1158h353
q27 0 36 5t18 20h54l-37 -142h-377l-30 -266q86 59 177 59q118 0 208 -83t90 -224q0 -146 -91.5 -235.5t-229.5 -89.5q-121 0 -198 68.5t-77 166.5q0 53 22.5 84.5t59.5 31.5q33 0 55 -22t22 -57q0 -26 -30 -76q-14 -24 -14 -39q0 -36 46.5 -67t108.5 -31q92 0 138.5 71.5
t46.5 189.5q0 126 -53 186t-134 60q-71 0 -156 -63h-61z" />
    <glyph glyph-name="a125" unicode="&#xb1;" 
d="M807 1444q303 0 519.5 -216.5t216.5 -519.5t-216.5 -519.5t-519.5 -216.5t-519.5 216t-216.5 520q0 303 216.5 519.5t519.5 216.5zM807 1373q-274 0 -469.5 -195.5t-195.5 -469.5t195.5 -470t469.5 -196t469.5 196t195.5 470t-195.5 469.5t-469.5 195.5zM629 670
q78 136 220 136q103 0 178.5 -76t75.5 -204q0 -132 -78.5 -228t-213.5 -96q-141 0 -225.5 114t-84.5 333q0 277 99.5 405.5t259.5 128.5q96 0 153.5 -47.5t57.5 -113.5q0 -39 -23.5 -63.5t-56.5 -24.5q-30 0 -51 21.5t-21 51.5q0 15 7 35q7 18 7 25q0 25 -26 40.5t-66 15.5
q-53 0 -108.5 -39t-80 -146t-24.5 -228q0 -13 1 -40zM814 723q-70 0 -122 -56.5t-52 -160.5q0 -113 48 -179t122 -66q65 0 109 55.5t44 176.5q0 114 -41 172t-108 58z" />
    <glyph glyph-name="a126" unicode="&#x2264;" 
d="M807 1444q303 0 519.5 -216.5t216.5 -519.5t-216.5 -519.5t-519.5 -216.5t-519.5 216t-216.5 520q0 303 216.5 519.5t519.5 216.5zM807 1373q-274 0 -469.5 -195.5t-195.5 -469.5t195.5 -470t469.5 -196t469.5 196t195.5 470t-195.5 469.5t-469.5 195.5zM563 1158h550
v-52q-70 -91 -144.5 -305t-82.5 -372l-6 -110q-3 -60 -24 -88.5t-55 -28.5q-29 0 -50.5 22t-21.5 72q0 115 107.5 366t175.5 379h-264q-82 0 -105 -15.5t-41 -92.5l-22 -90h-59z" />
    <glyph glyph-name="a127" unicode="&#x2265;" 
d="M807 1444q303 0 519.5 -216.5t216.5 -519.5t-216.5 -519.5t-519.5 -216.5t-519.5 216t-216.5 520q0 303 216.5 519.5t519.5 216.5zM807 1373q-274 0 -469.5 -195.5t-195.5 -469.5t195.5 -470t469.5 -196t469.5 196t195.5 470t-195.5 469.5t-469.5 195.5zM912 723
q104 -31 148.5 -98t44.5 -145q0 -120 -87 -199t-212 -79q-122 0 -207.5 79t-85.5 199q0 186 197 243q-182 67 -182 222q0 110 85 174t200 64t195.5 -66t80.5 -169q0 -82 -44 -134.5t-133 -90.5zM809 1123q-69 0 -107.5 -51.5t-38.5 -138.5q0 -89 41.5 -137t105.5 -48
t104.5 48t40.5 141q0 90 -39.5 138t-106.5 48zM805 688q-67 0 -109 -53.5t-42 -159.5t43 -160t114 -54q69 0 111 52t42 159q0 109 -44.5 162.5t-114.5 53.5z" />
    <glyph glyph-name="a128" unicode="&#xa5;" 
d="M807 1444q303 0 519.5 -216.5t216.5 -519.5t-216.5 -519.5t-519.5 -216.5t-519.5 216t-216.5 520q0 303 216.5 519.5t519.5 216.5zM807 1373q-274 0 -469.5 -195.5t-195.5 -469.5t195.5 -470t469.5 -196t469.5 196t195.5 470t-195.5 469.5t-469.5 195.5zM975 719
q-31 -72 -91 -107.5t-128 -35.5q-109 0 -182 78.5t-73 203.5q0 137 80 231t214 94q140 0 224 -117t84 -338q0 -254 -92.5 -390t-261.5 -136q-104 0 -160.5 47.5t-56.5 112.5q0 35 22.5 60t56.5 25q33 0 53.5 -19.5t20.5 -51.5q0 -13 -7 -32q-6 -18 -6 -28q0 -55 87 -55
q217 0 217 405q0 18 -1 53zM785 1123q-63 0 -103.5 -60t-40.5 -174q0 -116 43 -173.5t108 -57.5t119 55t54 165q0 113 -51 179t-129 66z" />
    <glyph glyph-name="a129" unicode="&#xb5;" 
d="M807 1444q303 0 519.5 -216.5t216.5 -519.5t-216.5 -519.5t-519.5 -216.5t-519.5 216t-216.5 520q0 303 216.5 519.5t519.5 216.5zM807 1373q-274 0 -469.5 -195.5t-195.5 -469.5t195.5 -470t469.5 -196t469.5 196t195.5 470t-195.5 469.5t-469.5 195.5zM366 1096
q124 16 236 87h40v-820q0 -52 12.5 -64t45.5 -12h75v-61h-388v61h68q33 0 45.5 12.5t12.5 63.5v603q0 47 -15 58.5t-46 11.5h-86v60zM1032 1183q139 0 216 -133t77 -357t-76.5 -357.5t-209.5 -133.5q-135 0 -211 134.5t-76 355.5q0 225 76 358t204 133zM1036 1122
q-60 0 -100.5 -74t-40.5 -350q0 -274 38 -355t105 -81q60 0 102 74.5t42 361.5q0 279 -41.5 351.5t-104.5 72.5z" />
    <glyph glyph-name="a130" unicode="&#x2202;" 
d="M807 1444q303 0 519.5 -216.5t216.5 -519.5t-216.5 -519.5t-519.5 -216.5t-519.5 216t-216.5 520q0 303 216.5 519.5t519.5 216.5zM923 1242h-52q-44 -33 -135.5 -61t-241.5 -33v-75h132q50 0 66.5 -14t16.5 -75v-614q0 -58 -5.5 -75.5t-19 -24t-59.5 -6.5h-111v-74h611
v74h-118q-45 0 -59 6.5t-19.5 23.5t-5.5 76v872z" />
    <glyph glyph-name="a131" unicode="&#x2211;" 
d="M807 1444q303 0 519.5 -216.5t216.5 -519.5t-216.5 -519.5t-519.5 -216.5t-519.5 216t-216.5 520q0 303 216.5 519.5t519.5 216.5zM1182 546h-75l-10 -46q-18 -75 -45.5 -91.5t-114.5 -16.5h-309q67 59 235 187q117 88 173 141.5t87 117t31 132.5q0 121 -91 197t-255 76
q-149 0 -243 -79t-94 -192q0 -67 36.5 -112.5t91.5 -45.5q43 0 73 29.5t30 70.5q0 53 -42 103q-32 38 -32 60q0 35 38.5 61t88.5 26q74 0 119.5 -54t45.5 -136q0 -58 -22.5 -120.5t-83.5 -144t-184 -212.5t-211 -233v-74h724z" />
    <glyph glyph-name="a132" unicode="&#x220f;" 
d="M807 1444q303 0 519.5 -216.5t216.5 -519.5t-216.5 -519.5t-519.5 -216.5t-519.5 216t-216.5 520q0 303 216.5 519.5t519.5 216.5zM901 746q133 22 197 93t64 157q0 104 -84 178t-269 74q-155 0 -242.5 -69t-87.5 -165q0 -51 32.5 -86.5t78.5 -35.5q38 0 66.5 25t28.5 68
q0 29 -21 68q-17 29 -17 43q0 28 39 52.5t93 24.5q78 0 120.5 -54t42.5 -154q0 -193 -169 -193q-16 0 -50 5q-15 2 -26 2q-48 0 -48 -46q0 -43 46 -43q8 0 29 5q43 9 68 9q78 0 128.5 -54t50.5 -170q0 -240 -193 -240q-65 0 -116 27t-51 62q0 14 19 48q30 50 30 87
q0 36 -29 66.5t-73 30.5q-50 0 -83 -38.5t-33 -100.5q0 -101 87.5 -177.5t284.5 -76.5q188 0 290 88.5t102 217.5q0 94 -64.5 171t-240.5 101z" />
    <glyph glyph-name="a133" unicode="&#x3c0;" 
d="M807 1444q303 0 519.5 -216.5t216.5 -519.5t-216.5 -519.5t-519.5 -216.5t-519.5 216t-216.5 520q0 303 216.5 519.5t519.5 216.5zM1005 467h134v87h-134v688h-108l-526 -663v-112h425v-97q0 -58 -5.5 -75.5t-19.5 -24t-59 -6.5h-90v-74h517v74h-51q-44 0 -58.5 6.5
t-19.5 23.5t-5 76v97zM796 554h-352l352 444v-444z" />
    <glyph glyph-name="a134" unicode="&#x222b;" 
d="M807 1444q303 0 519.5 -216.5t216.5 -519.5t-216.5 -519.5t-519.5 -216.5t-519.5 216t-216.5 520q0 303 216.5 519.5t519.5 216.5zM491 709h73q82 69 177 69q91 0 145 -65.5t54 -203.5q0 -123 -49 -197.5t-146 -74.5q-64 0 -110.5 31t-46.5 64q0 19 16 46q20 35 25.5 51
t5.5 39q0 47 -31 75t-70 28q-50 0 -83 -40.5t-33 -104.5q0 -107 88 -185t255 -78q201 0 307.5 103.5t106.5 260.5q0 161 -106.5 254.5t-249.5 93.5q-137 0 -245 -82l26 239h490l50 210h-77q-10 -17 -30.5 -22t-73.5 -5h-412z" />
    <glyph glyph-name="a135" unicode="&#xaa;" 
d="M807 1444q303 0 519.5 -216.5t216.5 -519.5t-216.5 -519.5t-519.5 -216.5t-519.5 216t-216.5 520q0 303 216.5 519.5t519.5 216.5zM643 704q-1 22 -1 32q0 213 58 323t166 110q42 0 68.5 -15.5t26.5 -40.5q0 -11 -8 -33q-9 -30 -9 -50q0 -31 27 -58.5t74 -27.5
q49 0 77 33t28 76q0 83 -71.5 136t-212.5 53q-217 0 -332 -158.5t-115 -413.5q0 -235 97 -371t302 -136q179 0 271.5 104.5t92.5 250.5q0 141 -83.5 231.5t-209.5 90.5q-71 0 -139 -36t-107 -100zM650 503q0 110 45 161t105 51q70 0 109.5 -62t39.5 -169
q0 -123 -41.5 -185.5t-106.5 -62.5q-68 0 -109.5 67t-41.5 200z" />
    <glyph glyph-name="a136" unicode="&#xba;" 
d="M807 1444q303 0 519.5 -216.5t216.5 -519.5t-216.5 -519.5t-519.5 -216.5t-519.5 216t-216.5 520q0 303 216.5 519.5t519.5 216.5zM1177 1215h-691l-50 -351h77q6 55 24.5 92t43 47.5t92.5 10.5h343q-68 -104 -187 -313t-148 -288t-29 -136q0 -45 28.5 -79.5t79.5 -34.5
q35 0 64 18.5t40 49.5t17 105q15 208 107 444t189 368v67z" />
    <glyph glyph-name="a137" unicode="&#x3a9;" 
d="M807 1444q303 0 519.5 -216.5t216.5 -519.5t-216.5 -519.5t-519.5 -216.5t-519.5 216t-216.5 520q0 303 216.5 519.5t519.5 216.5zM922 736q120 20 180 86.5t60 156.5q0 114 -87 188.5t-277 74.5q-167 0 -256 -74.5t-89 -190.5q0 -88 60.5 -154.5t173.5 -86.5
q-131 -18 -193.5 -92t-62.5 -178q0 -135 99 -219t286 -84q163 0 265 83.5t102 221.5q0 97 -60.5 175t-200.5 93zM674 971q0 197 135 197q132 0 132 -196q0 -203 -134 -203q-133 0 -133 202zM666 469q0 225 141 225q140 0 140 -222q0 -124 -34.5 -179.5t-101.5 -55.5
q-145 0 -145 232z" />
    <glyph glyph-name="a138" unicode="&#xe6;" 
d="M807 1444q303 0 519.5 -216.5t216.5 -519.5t-216.5 -519.5t-519.5 -216.5t-519.5 216t-216.5 520q0 303 216.5 519.5t519.5 216.5zM974 702q1 -23 1 -35q0 -200 -56 -315.5t-168 -115.5q-44 0 -69.5 16t-25.5 41q0 9 7 32q10 31 10 51q0 29 -27 57.5t-75 28.5
t-76.5 -33.5t-28.5 -76.5q0 -82 71 -135.5t213 -53.5q218 0 333 159t115 415q0 234 -97.5 369.5t-301.5 135.5q-178 0 -271 -103.5t-93 -251.5q0 -141 83.5 -231.5t209.5 -90.5q71 0 139 36t107 101zM966 903q0 -111 -45 -161.5t-105 -50.5q-70 0 -109 61.5t-39 168.5
q0 121 41 184.5t109 63.5q67 0 107.5 -66t40.5 -200z" />
    <glyph glyph-name="a139" unicode="&#xf8;" 
d="M807 1444q303 0 519.5 -216.5t216.5 -519.5t-216.5 -519.5t-519.5 -216.5t-519.5 216t-216.5 520q0 303 216.5 519.5t519.5 216.5zM708 703q0 -251 92.5 -395.5t250.5 -144.5q157 0 249.5 143.5t92.5 396.5q0 251 -92.5 395t-249.5 144t-250 -143t-93 -396zM919 703
q0 224 26 344t106 120q79 0 105 -120t26 -344q0 -222 -25.5 -343t-105.5 -121q-81 0 -106.5 122t-25.5 342zM629 1242h-47q-39 -33 -122.5 -61.5t-151.5 -32.5v-75h54q44 0 59 -13.5t15 -75.5v-614q0 -58 -4.5 -75.5t-17 -24t-53.5 -6.5h-34v-74h419v74q-78 0 -91 4.5
t-19.5 21.5t-6.5 80v872z" />
    <glyph glyph-name="a140" unicode="&#xbf;" 
d="M807 1444q303 0 519.5 -216.5t216.5 -519.5t-216.5 -519.5t-519.5 -216.5t-519.5 216t-216.5 520q0 303 216.5 519.5t519.5 216.5zM807 1373q-274 0 -469.5 -195.5t-195.5 -469.5t195.5 -470t469.5 -196t469.5 196t195.5 470t-195.5 469.5t-469.5 195.5zM913 227l-118 -1
v758q-49 -47 -119.5 -86.5t-118.5 -57.5v115q91 43 168.5 109t110.5 134h77v-971z" />
    <glyph glyph-name="a141" unicode="&#xa1;" 
d="M807 1444q303 0 519.5 -216.5t216.5 -519.5t-216.5 -519.5t-519.5 -216.5t-519.5 216t-216.5 520q0 303 216.5 519.5t519.5 216.5zM807 1373q-274 0 -469.5 -195.5t-195.5 -469.5t195.5 -470t469.5 -196t469.5 196t195.5 470t-195.5 469.5t-469.5 195.5zM1113 340v-113
h-639q-3 70 50.5 155t196.5 202q157 129 213 203.5t56 144.5q0 73 -52 120.5t-131 47.5q-77 0 -133 -48t-56 -146l-122 12q14 149 101.5 214.5t212.5 65.5q141 0 221.5 -78t80.5 -191q0 -77 -46.5 -158t-239.5 -244q-100 -85 -133.5 -118t-53.5 -69h474z" />
    <glyph glyph-name="a142" unicode="&#xac;" 
d="M807 1444q303 0 519.5 -216.5t216.5 -519.5t-216.5 -519.5t-519.5 -216.5t-519.5 216t-216.5 520q0 303 216.5 519.5t519.5 216.5zM807 1373q-274 0 -469.5 -195.5t-195.5 -469.5t195.5 -470t469.5 -196t469.5 196t195.5 470t-195.5 469.5t-469.5 195.5zM491 482l119 16
q38 -190 189 -190q83 0 141 58.5t58 142.5q0 82 -53 135.5t-137 53.5q-34 0 -83 -13l13 104q14 -1 20 -1q78 0 137.5 41t59.5 121q0 68 -47 109t-111 41q-74 0 -118.5 -46t-57.5 -128l-118 21q22 125 101.5 188t188.5 63q120 0 201.5 -72t81.5 -180q0 -134 -132 -195
q97 -23 138.5 -91t41.5 -148q0 -132 -96 -217t-229 -85q-131 0 -214 77.5t-94 194.5z" />
    <glyph glyph-name="a143" unicode="&#x221a;" 
d="M807 1444q303 0 519.5 -216.5t216.5 -519.5t-216.5 -519.5t-519.5 -216.5t-519.5 216t-216.5 520q0 303 216.5 519.5t519.5 216.5zM807 1373q-274 0 -469.5 -195.5t-195.5 -469.5t195.5 -470t469.5 -196t469.5 196t195.5 470t-195.5 469.5t-469.5 195.5zM846 227v231
h-419v109l441 627h98v-627h130v-109h-130v-231h-120zM846 567v436l-302 -436h302z" />
    <glyph glyph-name="a144" unicode="&#x192;" 
d="M807 1444q303 0 519.5 -216.5t216.5 -519.5t-216.5 -519.5t-519.5 -216.5t-519.5 216t-216.5 520q0 303 216.5 519.5t519.5 216.5zM807 1373q-274 0 -469.5 -195.5t-195.5 -469.5t195.5 -470t469.5 -196t469.5 196t195.5 470t-195.5 469.5t-469.5 195.5zM490 480l125 11
q15 -96 67 -139.5t119 -43.5q91 0 148 68.5t57 166.5q0 102 -58 161t-149 59q-56 0 -102.5 -25t-73.5 -68l-112 14l94 497h481v-114h-386l-52 -260q88 61 183 61q121 0 210.5 -85.5t89.5 -227.5q0 -144 -91 -244.5t-239 -100.5q-120 0 -209 69t-102 201z" />
    <glyph glyph-name="a145" unicode="&#x2248;" 
d="M807 1444q303 0 519.5 -216.5t216.5 -519.5t-216.5 -519.5t-519.5 -216.5t-519.5 216t-216.5 520q0 303 216.5 519.5t519.5 216.5zM807 1373q-274 0 -469.5 -195.5t-195.5 -469.5t195.5 -470t469.5 -196t469.5 196t195.5 470t-195.5 469.5t-469.5 195.5zM1107 957
l-119 -9q-11 51 -27.5 79.5t-53.5 50.5t-82 22q-93 0 -157.5 -91t-64.5 -283q84 128 234 128q121 0 203.5 -88.5t82.5 -224.5q0 -139 -83 -235t-219 -96q-142 0 -239 105.5t-97 363.5q0 265 91.5 392t255.5 127q109 0 184 -61t91 -180zM621 542q0 -97 56.5 -165.5
t140.5 -68.5q82 0 133 65t51 160t-51.5 155.5t-136.5 60.5q-80 0 -136.5 -57.5t-56.5 -149.5z" />
    <glyph glyph-name="a146" unicode="&#x2206;" 
d="M807 1444q303 0 519.5 -216.5t216.5 -519.5t-216.5 -519.5t-519.5 -216.5t-519.5 216t-216.5 520q0 303 216.5 519.5t519.5 216.5zM807 1373q-274 0 -469.5 -195.5t-195.5 -469.5t195.5 -470t469.5 -196t469.5 196t195.5 470t-195.5 469.5t-469.5 195.5zM498 1067v114
h627v-92q-127 -135 -239 -370t-130 -493h-122q3 193 96.5 433t241.5 408h-474z" />
    <glyph glyph-name="a146" unicode="&#x394;" 
d="M807 1444q303 0 519.5 -216.5t216.5 -519.5t-216.5 -519.5t-519.5 -216.5t-519.5 216t-216.5 520q0 303 216.5 519.5t519.5 216.5zM807 1373q-274 0 -469.5 -195.5t-195.5 -469.5t195.5 -470t469.5 -196t469.5 196t195.5 470t-195.5 469.5t-469.5 195.5zM498 1067v114
h627v-92q-127 -135 -239 -370t-130 -493h-122q3 193 96.5 433t241.5 408h-474z" />
    <glyph glyph-name="a147" unicode="&#xab;" 
d="M807 1444q303 0 519.5 -216.5t216.5 -519.5t-216.5 -519.5t-519.5 -216.5t-519.5 216t-216.5 520q0 303 216.5 519.5t519.5 216.5zM807 1373q-274 0 -469.5 -195.5t-195.5 -469.5t195.5 -470t469.5 -196t469.5 196t195.5 470t-195.5 469.5t-469.5 195.5zM673 751
q-145 52 -145 197q0 107 77 178.5t201 71.5q126 0 203.5 -73.5t77.5 -179.5q0 -140 -142 -194q100 -33 141 -102.5t41 -145.5q0 -126 -89.5 -209.5t-229.5 -83.5q-141 0 -230 84.5t-89 211.5q0 80 41 149t143 96zM650 947q0 -63 44.5 -106.5t113.5 -43.5q67 0 112 42.5
t45 106.5q0 65 -45.5 109.5t-112.5 44.5q-66 0 -111.5 -43t-45.5 -110zM611 504q0 -83 56 -139.5t142 -56.5q83 0 139.5 54t56.5 140q0 87 -58 142.5t-142 55.5t-139 -56.5t-55 -139.5z" />
    <glyph glyph-name="a148" unicode="&#xbb;" 
d="M807 1444q303 0 519.5 -216.5t216.5 -519.5t-216.5 -519.5t-519.5 -216.5t-519.5 216t-216.5 520q0 303 216.5 519.5t519.5 216.5zM807 1373q-274 0 -469.5 -195.5t-195.5 -469.5t195.5 -470t469.5 -196t469.5 196t195.5 470t-195.5 469.5t-469.5 195.5zM520 450l114 11
q28 -154 160 -154q116 0 173 109t53 266q-36 -56 -97.5 -92t-133.5 -36q-121 0 -204 88.5t-83 229.5q0 142 85.5 234t218.5 92q137 0 234.5 -104t97.5 -363q0 -280 -96 -400.5t-250 -120.5q-108 0 -182.5 60.5t-89.5 179.5zM1007 874q0 99 -53 162.5t-133 63.5
q-83 0 -140 -67.5t-57 -164.5q0 -92 55.5 -150.5t137.5 -58.5q88 0 139 62t51 153z" />
    <glyph glyph-name="a149" unicode="&#x2026;" 
d="M807 1444q303 0 519.5 -216.5t216.5 -519.5t-216.5 -519.5t-519.5 -216.5t-519.5 216t-216.5 520q0 303 216.5 519.5t519.5 216.5zM807 1373q-274 0 -469.5 -195.5t-195.5 -469.5t195.5 -470t469.5 -196t469.5 196t195.5 470t-195.5 469.5t-469.5 195.5zM707 707
q0 253 83 372t233 119q315 0 315 -494q0 -257 -83.5 -375.5t-231.5 -118.5q-316 0 -316 497zM829 705q0 -224 52 -310.5t142 -86.5q89 0 141 86t52 310q0 222 -51 309t-143 87q-93 0 -143 -89.5t-50 -305.5zM624 227l-119 -1v758q-48 -47 -118.5 -86.5t-119.5 -57.5v115
q92 43 169.5 109t110.5 134h77v-971z" />
    <glyph glyph-name="a150" unicode="&#xa0;" 
d="M807 1444q303 0 519.5 -216.5t216.5 -519.5t-216.5 -519.5t-519.5 -216.5t-519.5 216t-216.5 520q0 303 216.5 519.5t519.5 216.5zM936 207v1020h-157q-34 -95 -125.5 -164.5t-163.5 -93.5v-176q148 50 252 147v-733h194z" />
    <glyph glyph-name="a151" unicode="&#xc0;" 
d="M807 1444q303 0 519.5 -216.5t216.5 -519.5t-216.5 -519.5t-519.5 -216.5t-519.5 216t-216.5 520q0 303 216.5 519.5t519.5 216.5zM1142 387h-387q21 36 54.5 69.5t105.5 99.5q88 82 133.5 138.5t69.5 120t24 130.5q0 118 -85.5 200t-234.5 82q-137 0 -230 -70t-109 -231
l193 -20q12 159 140 159q57 0 94 -33t37 -102q0 -45 -19.5 -83t-47.5 -70.5t-135 -131.5q-153 -143 -212.5 -234.5t-72.5 -203.5h682v180z" />
    <glyph glyph-name="a152" unicode="&#xc3;" 
d="M807 1444q303 0 519.5 -216.5t216.5 -519.5t-216.5 -519.5t-519.5 -216.5t-519.5 216t-216.5 520q0 303 216.5 519.5t519.5 216.5zM505 476q14 -125 104 -206t230 -81q142 0 241.5 93t99.5 229q0 92 -52.5 157.5t-139.5 83.5q146 81 146 214q0 102 -84 181.5t-217 79.5
q-103 0 -192 -54t-122 -212l180 -30q8 68 43.5 101.5t84.5 33.5q51 0 81.5 -31t30.5 -81q0 -64 -45.5 -98.5t-116.5 -32.5l-21 -159q51 15 89 15q60 0 97.5 -45t37.5 -114q0 -70 -38 -120t-104 -50q-63 0 -100.5 43t-44.5 106z" />
    <glyph glyph-name="a153" unicode="&#xd5;" 
d="M807 1444q303 0 519.5 -216.5t216.5 -519.5t-216.5 -519.5t-519.5 -216.5t-519.5 216t-216.5 520q0 303 216.5 519.5t519.5 216.5zM822 207h188v204h126v171h-126v645h-164l-440 -646v-170h416v-204zM822 582h-234l234 347v-347z" />
    <glyph glyph-name="a154" unicode="&#x152;" 
d="M807 1444q303 0 519.5 -216.5t216.5 -519.5t-216.5 -519.5t-519.5 -216.5t-519.5 216t-216.5 520q0 303 216.5 519.5t519.5 216.5zM467 468q19 -133 109.5 -206t223.5 -73q160 0 255 107.5t95 253.5q0 144 -89 240t-221 96q-65 0 -133 -32l31 173h367v182h-515l-100 -529
l158 -23q67 74 150 74q69 0 110.5 -48t41.5 -139q0 -95 -41 -147t-105 -52q-52 0 -93 38t-50 105z" />
    <glyph glyph-name="a155" unicode="&#x153;" 
d="M807 1444q303 0 519.5 -216.5t216.5 -519.5t-216.5 -519.5t-519.5 -216.5t-519.5 216t-216.5 520q0 303 216.5 519.5t519.5 216.5zM1124 974q-22 133 -102.5 193t-186.5 60q-174 0 -272.5 -130.5t-98.5 -393.5q0 -262 95.5 -388t257.5 -126q145 0 235.5 96.5t90.5 246.5
q0 147 -86.5 240.5t-207.5 93.5q-109 0 -183 -85q8 105 23.5 163t50.5 90t84 32q98 0 111 -113zM683 553q0 79 37.5 124.5t95.5 45.5q60 0 98 -48t38 -142q0 -96 -35.5 -139.5t-90.5 -43.5q-63 0 -103 57t-40 146z" />
    <glyph glyph-name="a156" unicode="&#x2013;" 
d="M807 1444q303 0 519.5 -216.5t216.5 -519.5t-216.5 -519.5t-519.5 -216.5t-519.5 216t-216.5 520q0 303 216.5 519.5t519.5 216.5zM512 1027h443q-126 -157 -212 -372.5t-95 -447.5h188q0 133 43.5 303t129.5 322.5t169 235.5v141h-666v-182z" />
    <glyph glyph-name="a157" unicode="&#x2014;" 
d="M811 -29q-308 0 -524 217t-216 520t216.5 519.5t519.5 216.5t519.5 -216.5t216.5 -519.5q0 -198 -99.5 -369.5t-271 -269.5t-361.5 -98zM642 755q-169 -80 -169 -258q0 -137 94.5 -222.5t242.5 -85.5q150 0 240.5 87.5t90.5 225.5q0 77 -36.5 142.5t-136.5 110.5
q140 67 140 211q0 117 -82.5 189t-222.5 72t-222 -72.5t-82 -188.5q0 -145 143 -211zM803 1072q57 0 89.5 -33.5t32.5 -87.5q0 -56 -32.5 -90t-90.5 -34q-61 0 -90 37t-29 84q0 48 29 86t91 38zM665 510q0 72 39.5 116.5t101.5 44.5q61 0 101.5 -43t40.5 -117t-37.5 -120
t-101.5 -46q-63 0 -103.5 46.5t-40.5 118.5z" />
    <glyph glyph-name="a158" unicode="&#x201c;" 
d="M807 1444q303 0 519.5 -216.5t216.5 -519.5t-216.5 -519.5t-519.5 -216.5t-519.5 216t-216.5 520q0 303 216.5 519.5t519.5 216.5zM491 442q41 -253 287 -253q176 0 274.5 130.5t98.5 395.5q0 259 -95 385.5t-258 126.5q-144 0 -235 -95.5t-91 -249.5q0 -146 87 -239
t207 -93q110 0 183 85q-12 -172 -53 -229t-103 -57q-99 0 -113 114zM932 863q0 -78 -37 -124t-96 -46q-61 0 -98.5 48.5t-37.5 142.5t35 138t91 44q64 0 103.5 -57.5t39.5 -145.5z" />
    <glyph glyph-name="a159" unicode="&#x201d;" 
d="M807 1444q303 0 519.5 -216.5t216.5 -519.5t-216.5 -519.5t-519.5 -216.5t-519.5 216t-216.5 520q0 303 216.5 519.5t519.5 216.5zM636 207v1020h-157q-35 -97 -127.5 -166t-161.5 -92v-176q150 50 252 147v-733h194zM1071 1227q-330 0 -330 -517q0 -285 88 -403
t242 -118q330 0 330 519t-330 519zM1071 1065q66 0 96 -73t30 -284t-30 -284.5t-96 -73.5q-68 0 -97 74.5t-29 283.5q0 210 29.5 283.5t96.5 73.5z" />
    <glyph glyph-name="a160" unicode="&#x2018;" horiz-adv-x="1831" 
d="M1292 869l-361 442h387l482 -588l-482 -588h-387l361 441h-1247v293h1247z" />
    <glyph glyph-name="a161" unicode="&#x2019;" horiz-adv-x="1716" 
d="M69 754h1314q-110 108 -211 307h67q191 -214 408 -325v-56q-217 -111 -408 -325h-67q102 200 211 307h-1314v92z" />
    <glyph glyph-name="a163" unicode="&#xf7;" horiz-adv-x="2081" 
d="M342 754h1398q-110 108 -211 307h67q191 -214 408 -325v-56q-217 -111 -408 -325h-67q102 200 211 307h-1398q110 -109 210 -307h-67q-191 214 -408 325v56q217 111 408 325h67q-99 -197 -210 -307z" />
    <glyph glyph-name="a164" unicode="&#x25ca;" horiz-adv-x="938" 
d="M423 -22v1398q-108 -110 -307 -210v67q215 191 325 408h56q111 -217 325 -408v-67q-200 101 -307 210v-1398q109 111 307 211v-67q-214 -191 -325 -408h-56q-110 217 -325 408v67q198 -99 307 -211z" />
    <glyph glyph-name="a196" unicode="&#xff;" horiz-adv-x="1532" 
d="M468 148l-3 11q142 57 289 151q-115 79 -263.5 246.5t-273.5 399.5l233 186q85 -145 187.5 -283.5t171 -207.5t146.5 -127q51 150 82 330l9 2l337 -809l-3 -9z" />
    <glyph glyph-name="a165" unicode="&#x178;" horiz-adv-x="1892" 
d="M1861 613l1 -12l-847 -451l-6 7q89 157 144 308h-1086v284h1086q-55 151 -144 308l6 7z" />
    <glyph glyph-name="a192" unicode="&#x2044;" horiz-adv-x="1532" 
d="M1237 263l-11 -3q-69 137 -175 275q-71 -125 -225.5 -287t-371.5 -305l-206 216q410 292 572 557q-154 38 -336 52l-3 9l777 407l9 -2z" />
    <glyph glyph-name="a166" unicode="&#x20ac;" horiz-adv-x="1880" 
d="M913 727q-146 117 -199 190.5t-79.5 143.5t-26.5 112q0 25 13 43.5t33 18.5q23 0 55 -30q112 -109 198.5 -175t208.5 -124t285 -101t311 -57q73 -7 91.5 -23.5t18.5 -31.5q0 -24 -24 -37t-86 -19q-138 -12 -302.5 -54.5t-288 -101t-209 -122.5t-203.5 -179
q-32 -30 -54 -30t-34.5 19t-12.5 44q0 56 42 145.5t99 151.5t164 148l-855 -36v141z" />
    <glyph glyph-name="a167" unicode="&#x2039;" horiz-adv-x="1898" 
d="M1316 869l-87 100q-91 104 -91 181q0 64 44.5 108t106.5 44q45 0 77 -22t85 -89l373 -468l-373 -469q-52 -65 -84.5 -88t-76.5 -23q-64 0 -108 44.5t-44 107.5q0 44 21.5 85t69.5 97l87 99h-993q-81 0 -130 12t-82 48.5t-33 86.5q0 54 46 100t199 46h993z" />
    <glyph glyph-name="a168" unicode="&#x203a;" horiz-adv-x="1901" 
d="M168 924l1097 -60l-66 271l528 -427l-528 -427l66 271l-1097 -61l54 217z" />
    <glyph glyph-name="a169" unicode="&#xfb01;" horiz-adv-x="1901" 
d="M168 948l1097 -60l-60 247l528 -427l-528 -427l60 246l-1097 -60l60 241z" />
    <glyph glyph-name="a170" unicode="&#xfb02;" horiz-adv-x="1708" 
d="M636 917l533 -29l-60 210l528 -390l-528 -391l60 210l-533 -29l61 210zM72 948l52 -2l61 -238l-61 -238l-52 -3l60 241zM256 938l96 -5l60 -225l-60 -226l-96 -5l60 231zM426 929l159 -9l61 -212l-61 -213l-159 -9l60 222z" />
    <glyph glyph-name="a171" unicode="&#x2021;" horiz-adv-x="1788" 
d="M836 1018l348 -19l-36 218h15q86 -187 233 -314.5t320 -197.5q-172 -70 -319.5 -197.5t-233.5 -314.5h-15l36 218l-348 -19l60 313zM73 1059l48 -2l60 -352l-60 -352l-48 -2l60 354zM267 1049l67 -4l60 -340l-60 -340l-67 -4l60 344zM453 1039l104 -6l61 -328l-61 -328
l-104 -6l60 334zM636 1029l151 -8l61 -316l-61 -316l-151 -8l60 324z" />
    <glyph glyph-name="a172" unicode="&#xb7;" horiz-adv-x="1696" 
d="M27 1059l1111 -60l-36 218h15l553 -512l-553 -512h-15l36 218l-1111 -60v708z" />
    <glyph glyph-name="a173" unicode="&#x201a;" horiz-adv-x="1892" 
d="M71 1249l1750 -541l-1750 -540l603 540zM335 1102l435 -394l-435 -394l932 394z" />
    <glyph glyph-name="a162" unicode="&#x201e;" horiz-adv-x="1892" 
d="M71 1249l1750 -541l-1750 -540l603 540zM335 1102l715 -394l-715 -394l1278 394z" />
    <glyph glyph-name="a174" unicode="&#x2030;" horiz-adv-x="1878" 
d="M211 1113l1519 -405l-1519 -406l340 406z" />
    <glyph glyph-name="a175" unicode="&#xc2;" horiz-adv-x="1905" 
d="M1844 647l-929 -395l233 306h-564q-113 0 -192 21.5t-158 95.5t-114 173t-35 217v118h177v-89q0 -95 16.5 -158t60.5 -114.5t96 -68.5t165 -17h548l-233 306z" />
    <glyph glyph-name="a176" unicode="&#xca;" horiz-adv-x="1907" 
d="M1845 647l-929 -391l233 302h-548q-105 0 -154.5 -13t-98 -62t-67 -116t-18.5 -166v-89h-177v117q0 178 75 297.5t171 165t253 45.5h564l-233 306z" />
    <glyph glyph-name="a177" unicode="&#xc1;" horiz-adv-x="948" 
d="M93 1162h229v420h17l518 -879l-518 -878h-17v420h-229v917z" />
    <glyph glyph-name="a178" unicode="&#xcb;" horiz-adv-x="1808" 
d="M1778 704l-909 -843h-18v440h-809v806h809v440h18z" />
    <glyph glyph-name="a179" unicode="&#xc8;" horiz-adv-x="1712" 
d="M836 1327l279 -12l549 -612l-549 -603l-279 -12v391l-763 25v402l763 24v397zM885 1283v-402l-763 -24v-304l763 -24v-400l487 574z" />
    <glyph glyph-name="a193" unicode="&#xcd;" horiz-adv-x="1712" 
d="M817 100v404l-525 -22l-209 10v435l209 9l525 -20v399l254 12l582 -617l-582 -622zM1039 133l540 577l-540 576v-427l-747 24v-349l747 24v-425z" />
    <glyph glyph-name="a180" unicode="&#xce;" horiz-adv-x="1776" 
d="M1326 1198l377 -364l-9 -250l-813 -320v207l-746 39l-10 200l250 256l796 13zM1326 1137l-134 -200l-800 -13l-210 -216l840 -13l-141 -199l778 324z" />
    <glyph glyph-name="a199" unicode="&#xcf;" horiz-adv-x="1776" 
d="M1326 264l-155 219l-796 13l-250 256l10 201l746 38v207l813 -320l9 -249zM1326 326l333 317l-778 323l141 -199l-840 -13l210 -215l800 -13z" />
    <glyph glyph-name="a181" unicode="&#xcc;" horiz-adv-x="1425" 
d="M576 1334l785 -682l-612 -562l-173 129v107l-272 18l-229 165l8 501l493 18v306zM625 1212v-233l-492 -18l-9 -418l501 -18v-271l518 505z" />
    <glyph glyph-name="a200" unicode="&#xd3;" horiz-adv-x="1425" 
d="M576 90v305l-493 19l-8 500l229 165l272 18v107l173 130l612 -563zM625 211l518 454l-518 505v-271l-501 -18l9 -419l492 -18v-233z" />
    <glyph glyph-name="a182" unicode="&#xd4;" horiz-adv-x="1790" 
d="M1150 1269l563 -568l-563 -511v232l-934 37l-139 121l139 173l-127 222l1061 24v270zM1201 1140v-190l-1028 -24l100 -173l-139 -173l1067 -24v-176l381 373z" />
    <glyph glyph-name="a201" unicode="&#xd2;" horiz-adv-x="1790" 
d="M1150 141v270l-1061 24l127 222l-139 173l139 121l934 37v232l563 -511zM1201 270l381 387l-381 373v-176l-1067 -24l139 -173l-100 -173l1028 -24v-190z" />
    <glyph glyph-name="a183" unicode="&#xda;" horiz-adv-x="1556" 
d="M779 1495q308 0 528 -219.5t220 -528.5q0 -308 -220 -528t-528 -220t-528 220t-220 528q0 309 220 528.5t528 219.5zM201 931v-367h730v-251l466 434l-466 435v-251h-730z" />
    <glyph glyph-name="a184" unicode="&#xdb;" horiz-adv-x="1937" 
d="M471 749l109 -5l-223 404l47 -1l225 -404l110 -5l-227 410l47 -1l226 -409l792 -24l-4 5l4 -1l1 -1q-29 10 -74.5 32.5t-105 70t-86 82t-41 69t-38.5 120.5q-6 20 -6 56l686 -434v-12l-690 -428q0 55 19.5 106t75.5 121t117.5 113t140.5 76l-791 -20l-226 -407h-47
l222 407l-105 -3l-225 -404h-47l221 403l-104 -3l-223 -400h-47l218 400l-108 -4l-219 -396h-47l216 395l-168 -5q-28 -1 -38 9.5t-10 36.5q0 40 8 51t38 10l170 -4l-216 392h47l218 -393l112 -7l-221 401l47 -1z" />
    <glyph glyph-name="a197" unicode="&#xd9;" horiz-adv-x="1579" 
d="M785 783l-364 364q5 75 23 132t58 124l303 -302q-28 -118 -28 -220q0 -50 8 -98zM707 705q-56 13 -111 13q-97 0 -207 -28l-302 302q66 37 120 54.5t129 29.5zM785 783l426 -425q36 98 93 167t92 88l13 -12q-12 -72 -12 -109q0 -70 18 -181.5t70 -270.5l-35 -35
q-144 47 -247 66.5t-221 19.5q-42 0 -96 -7l-9 10q20 36 89.5 93t166.5 93l-426 425z" />
    <glyph glyph-name="a185" unicode="&#x131;" horiz-adv-x="1771" 
d="M696 763h602q-56 121 -56 245q0 45 7 67h17q36 -62 147 -153.5t304 -188.5v-51q-191 -95 -293 -179.5t-162 -162.5h-13q-7 22 -7 67q0 124 56 245h-602v111zM696 763h-514q-50 58 -78 110.5t-46 127.5h428q96 -156 210 -238zM696 652q-118 -72 -213 -235h-428
q20 72 45.5 122t71.5 113h524z" />
    <glyph glyph-name="a194" unicode="&#x2c6;" horiz-adv-x="1579" 
d="M659 705l425 426q-162 58 -254 184l14 8q77 -3 113 -3q89 0 186.5 14t260.5 69l35 -36q-42 -98 -65.5 -233.5t-23.5 -223.5q0 -48 7 -104l-9 -9q-127 91 -185 255l-427 -425zM661 708l-364 -364q-97 11 -143 26t-113 55l302 302q122 -27 219 -27q50 0 99 8zM740 630
q-14 -56 -14 -111q0 -97 29 -207l-302 -302q-37 67 -50 105t-34 144z" />
    <glyph glyph-name="a198" unicode="&#x2dc;" horiz-adv-x="1819" 
d="M1620 36l-36 -36q-160 48 -256 66t-204 18q-48 0 -106 -7l-10 9q38 59 113 112.5t142 72.5l-453 452q-52 13 -100 13q-100 0 -217 -30l-302 302q168 90 327 87q-3 158 86 327l302 -303q-29 -116 -29 -217q0 -50 12 -100l453 -452q17 63 70.5 139.5t113.5 114.5l10 -9
q-9 -62 -9 -112q0 -72 16 -175.5t32.5 -160t44.5 -111.5z" />
    <glyph glyph-name="a186" unicode="&#xaf;" horiz-adv-x="1980" 
d="M1814 736v-50q-182 -99 -281.5 -174.5t-173.5 -171.5h-13q-7 33 -7 78q0 53 15 119.5t42 112.5h-640q-112 -67 -212 -236h-428q55 181 170 292q-115 111 -170 292h428q100 -169 212 -236h640q-27 46 -42 114t-15 119q0 44 7 77h13q77 -99 210 -198t245 -138z" />
    <glyph glyph-name="a195" unicode="&#x2d8;" horiz-adv-x="1819" 
d="M1587 1455l36 -36q-48 -160 -66.5 -256t-18.5 -204q0 -48 8 -106l-10 -10q-58 38 -112 113t-72 142l-453 -452q-12 -51 -12 -101q0 -99 29 -216l-302 -303q-89 168 -86 327q-162 -2 -327 86l302 303q117 -30 217 -30q49 0 100 13l453 452q-63 17 -139.5 70.5
t-115.5 114.5l10 9q63 -8 114 -8q71 0 173.5 16t159 32t112.5 44z" />
    <glyph glyph-name="a187" unicode="&#x2d9;" horiz-adv-x="1702" 
d="M1649 707q-148 -30 -273 -79t-221 -123t-112 -92.5t-30 -18.5q-18 0 -18 21q0 18 33.5 64t95.5 108q57 57 57 74q0 13 -10.5 20.5t-121.5 6t-197.5 -17.5t-216.5 -54q-124 -38 -192.5 -50.5t-154.5 -12.5q-115 0 -166 46t-51 108t51 108t163 46q88 0 156 -12.5t194 -50.5
q115 -34 172 -46t133.5 -19.5t185.5 -7.5q55 0 55 27q0 18 -57 75q-64 64 -96.5 109.5t-32.5 61.5q0 22 18 22q11 0 33 -20q140 -132 289.5 -197t313.5 -96z" />
    <glyph glyph-name="a188" unicode="&#x2da;" horiz-adv-x="1788" 
d="M1757 707l-53 -24q-244 -110 -346 -171t-195 -154q-22 -22 -34 -29t-31 -7q-23 0 -37.5 11.5t-14.5 25.5q0 24 48 91q122 172 122 204q0 37 -54 37q-55 0 -152.5 -19.5t-153.5 -36.5t-192 -87q-79 -41 -164.5 -76t-182.5 -35q-116 0 -188 76.5t-72 193.5q0 119 73 194.5
t183 75.5q80 0 155.5 -24.5t195.5 -86.5q118 -61 181.5 -83t166.5 -41t150 -19q54 0 54 36q0 34 -122 206q-48 66 -48 90q0 15 15 26t37 11q19 0 30.5 -7t34.5 -29q98 -98 205.5 -160t388.5 -189z" />
    <glyph glyph-name="a189" unicode="&#xb8;" horiz-adv-x="1898" 
d="M784 1026l124 -218q8 -14 14 -17t29 -3h426q29 0 29 27v146l332 -244l-332 -243v146q0 27 -29 27h-426q-21 0 -28 -3t-15 -17l-124 -219h-615l140 267q19 36 19 42q0 7 -19 43l-140 266h615z" />
    <glyph glyph-name="a190" unicode="&#x2dd;" horiz-adv-x="1986" 
d="M1378 858l5 207q1 31 14 35l520 -364q27 -19 27 -30q0 -9 -23 -25l-523 -372q-13 0 -14 22l-6 226h-346q-35 0 -41 -7.5t-14 -21.5l-116 -207q-7 -13 -13.5 -16t-36.5 -3h-761q-18 0 -20 11l211 399l-208 398q1 14 29 14h742q37 0 45 -5t21 -31l107 -206q9 -16 16 -20
t31 -4h354z" />
    <glyph glyph-name="a191" unicode="&#x2db;" horiz-adv-x="1880" 
d="M1821 692l-742 -493v334h-996v319h996v334zM1169 761h-995v-137h995v-257l489 325l-489 326v-257z" />
  </font>
</defs>
</svg>
